<svg width="51" height="49" viewBox="0 0 51 49" fill="none" xmlns="http://www.w3.org/2000/svg">
<path d="M50.8527 9.62693C50.7544 9.52754 50.6186 9.46504 50.4773 9.43601C49.4284 9.21993 48.3623 9.09549 47.2978 9.0618C47.2959 9.06136 47.2943 9.06091 47.2925 9.06036C46.7152 8.91852 46.8335 8.55218 46.8533 8.50132C47.2763 7.67456 47.9772 6.97579 48.652 6.29142C49.4706 5.45956 50.3012 4.56399 50.5372 3.45776C50.7176 2.61228 50.4358 1.58839 49.6563 0.971503C49.1658 0.583887 48.8058 0.536459 48.1967 0.59541C47.5111 0.662229 46.8208 0.701457 46.1291 0.719298C42.3743 0.815482 38.6236 0.288465 34.875 0.0883411C28.2511 -0.272126 21.4841 0.434292 15.4915 2.87867C14.5064 3.2798 13.5434 3.73036 12.6108 4.22657C10.5353 4.07432 8.45226 3.95918 6.36291 3.88162C6.28812 3.82987 -1.41835 10.8808 0.231519 20.4649C0.174733 20.9108 0.133858 21.3578 0.109773 21.8047C-0.0770442 25.2864 0.73839 28.7437 2.53067 31.6529C4.81534 35.3381 8.57722 37.8612 12.5577 38.8826C13.1521 40.2466 15.0557 43.9826 18.632 44.7123C18.6335 44.7046 21.3346 45.1405 20.885 42.727C20.5586 41.0039 20.6637 39.4508 20.7563 38.6988C21.6005 38.4721 22.4489 38.256 23.3187 38.2285C24.6047 38.1865 25.999 38.6533 26.6906 39.8035C27.2452 40.7258 27.2586 41.8886 27.4347 42.969C27.7897 45.147 28.8627 47.1692 30.3601 48.5843C30.5958 48.8069 30.8727 49.0257 31.1785 48.9975C31.4323 48.9741 31.6481 48.7843 31.8385 48.591C33.2725 47.1336 34.1862 45.0006 34.2372 42.8222C34.2657 41.6043 34.0335 40.3375 34.4314 39.1972C35.5251 36.0444 40.3395 36.3206 41.943 33.4608C42.0637 33.2437 42.1633 33.0069 42.1764 32.756C42.2265 31.8554 41.2142 31.2886 40.3392 31.1248C36.0137 30.3183 31.9611 33.3859 27.721 33.5085C27.0133 33.5292 26.3146 33.4665 25.6276 33.3348C26.5862 33.0719 27.8377 32.3706 28.3912 30.445C29.0482 28.1783 27.4702 27.5532 26.3852 27.4038C25.9399 27.3413 25.4869 27.3697 25.0499 27.4753C24.2069 27.6782 22.2276 28.0873 19.7915 28.1487C18.0882 28.1923 17.0074 27.4651 16.3541 26.7554C16.0221 26.1517 15.7884 25.5057 15.7209 24.8146C15.5737 23.319 16.2518 21.818 17.2932 20.6881C18.333 19.5578 19.7046 18.7542 21.1095 18.0636C24.0462 16.6178 27.2272 15.5855 30.5173 15.0184C30.8671 16.1223 30.317 17.7565 30.4661 18.2664C30.5397 18.5208 30.7743 18.7097 31.0046 18.8397C31.3145 19.0144 31.6926 19.0329 32.021 18.9001C34.3664 17.9589 34.3484 15.4008 34.2502 14.4879C35.4914 14.3104 36.7201 14.0921 37.9055 13.7124C40.2936 12.9486 42.4648 11.5359 45.0229 11.2458C46.8611 11.037 48.8879 11.4101 50.473 10.5818C50.8412 10.389 51.2144 9.99372 50.8527 9.62693Z" fill="#F4F3F2"/>
<path d="M50.9355 9.73373C50.0423 9.96854 48.1071 10.1424 46.3856 10.0656C44.0288 9.96067 39.4759 10.8784 36.3159 12.2623C34.4705 13.0707 32.3125 13.2532 30.3288 13.4245C28.0968 13.6173 25.7008 11.7842 23.5728 12.6095C22.2565 13.1198 20.9153 15.1368 19.6267 15.7338C18.5263 16.2435 17.3698 16.7796 16.383 17.4938C15.038 18.4675 13.4254 19.4539 12.9587 21.1672C12.5209 22.7736 13.289 24.4376 14.3173 25.6417C14.8068 26.215 15.3864 26.708 16.0242 27.108C16.3507 27.3129 16.6924 27.4932 17.0447 27.6492C17.256 27.7425 17.8769 28.099 18.1009 28.0338L18.3161 27.9712C17.429 27.718 16.7941 27.2333 16.3541 26.7554C16.0221 26.1517 15.7884 25.5057 15.7209 24.8146C15.5738 23.319 16.2518 21.818 17.2932 20.6881C18.3332 19.5578 19.7047 18.7543 21.1095 18.0636C24.0462 16.6178 27.2272 15.5855 30.5173 15.0184C30.8672 16.1223 30.317 17.7565 30.4661 18.2665C30.5397 18.5209 30.7742 18.7097 31.0047 18.8398C31.3145 19.0144 31.6926 19.0329 32.021 18.9001C34.3664 17.9589 34.3484 15.401 34.2502 14.4879C35.4914 14.3104 36.7201 14.0921 37.9055 13.7125C40.2935 12.9487 42.4648 11.5359 45.0229 11.2458C46.8611 11.037 48.8879 11.4102 50.473 10.5818C50.8056 10.4076 51.1406 10.0682 50.9355 9.73373Z" fill="#BCC5CA"/>
<path d="M20.856 4.87366L20.5241 6.97097C20.5241 6.97097 11.405 9.23927 7.70994 15.8498C7.70994 15.8498 -1.58609 26.1939 10.9935 36.3712L16.9203 38.104L19.89 38.8625L20.5594 43.1047L20.043 44.0281L18.6321 44.7122L17.0899 44.0605L13.9202 40.9173L13.0612 38.7917L5.50149 34.5829L1.6235 27.4547L3.12368 16.109L10.8644 7.8712L20.6504 3.96412L20.856 4.87366Z" fill="#BCC5CA"/>
<path d="M22.749 6.77268C22.749 6.77268 26.3743 8.5666 33.2273 6.97092C33.2273 6.97092 23.1652 11.2728 22.749 6.77268Z" fill="#BCC5CA"/>
<path d="M26.533 33.7692C26.533 33.7692 28.3422 35.6487 26.533 35.6487C24.7238 35.6487 12.5019 36.0698 9.00186 25.571C9.00186 25.571 8.1408 35.5417 24.9502 36.9123C24.9502 36.9123 27.3825 37.6619 26.339 38.4303L27.337 39.2721L29.3316 38.104L29.8569 35.5514L29.1499 33.9962L26.533 33.7692Z" fill="#BCC5CA"/>
<path d="M38.1193 7.93358V6.17168C38.1193 6.17168 44.1401 0.234442 48.4045 0.913269C48.4045 0.913269 50.1063 1.67831 49.9338 2.5208C49.7617 3.3633 49.2448 4.98357 49.2448 4.98357L48.1677 6.30144L46.0557 9.01021L45.0447 9.39052L41.6203 9.01021L38.1193 7.93358Z" fill="#F1726B"/>
<path d="M29.699 34.8384L31.3144 33.3278L39.8843 31.4524L40.8125 32.4731L37.388 35.8431L34.0282 37.6594L33.7577 39.9867L33.6729 42.8594L31.4437 48.0919H30.3636L28.633 45.9857L27.6759 40.1529L29.053 38.104C29.053 38.104 31.4064 36.1811 29.699 34.8384Z" fill="#BCC5CA"/>
<path d="M33.7146 10.2368C34.0921 10.4721 34.5355 10.6079 34.9856 10.6436C35.229 10.6626 35.4743 10.6571 35.7154 10.6288C35.788 10.6204 35.9332 10.5662 36.0042 10.5815C36.0349 10.5854 31.9994 9.73459 37.3028 5.08741C37.0167 5.25384 36.7387 5.43147 36.464 5.61176C35.861 6.0078 35.2769 6.42755 34.7292 6.88176C34.3318 7.21121 33.9437 7.55361 33.6146 7.94034C33.3246 8.28075 33.0018 8.68643 32.9779 9.13399C32.952 9.61946 33.2994 9.97793 33.7146 10.2368Z" fill="#2E343E"/>
<path d="M38.7376 11.1857C36.7941 12.1021 34.7141 13.2032 30.4552 13.3779C30.4611 13.3726 33.9972 13.7859 36.7803 12.7085C39.5765 11.6347 40.0598 10.9359 43.4551 10.318C43.4567 10.3141 40.6798 10.271 38.7376 11.1857Z" fill="#2E343E"/>
<path d="M35.4389 2.86799C35.8263 2.89193 36.1557 2.63518 36.1747 2.293C36.1937 1.95092 35.8928 1.65251 35.5025 1.62847C35.1123 1.60453 34.7827 1.86405 34.7664 2.20623C34.7501 2.54886 35.0511 2.84406 35.4389 2.86799Z" fill="#2E343E"/>
<path d="M47.8343 10.4137C47.2654 10.4669 46.6919 10.4915 46.1242 10.5509C44.9165 10.6771 43.7215 10.8711 42.5525 11.1439C41.0525 11.4942 39.7404 12.1503 38.334 12.6914C36.8965 13.2429 35.2696 13.7085 33.7252 13.8809C31.8924 14.0851 30.0723 14.3576 28.2706 14.6974C26.5202 15.0275 24.8354 15.412 23.2263 15.9774C23.22 15.9734 18.9213 16.8463 14.9093 16.8424C14.9111 16.8471 16.7511 17.4793 19.9957 17.4546C18.576 17.7168 15.4867 18.249 12.5332 18.2848C12.5354 18.2901 14.4993 18.9369 17.9332 18.8131C17.936 18.8258 17.9347 18.8207 17.9378 18.8333C16.5197 19.1145 13.4746 19.6794 10.5569 19.7505C10.56 19.7568 12.6923 20.4341 16.3873 20.1867C16.3492 20.2292 16.3134 20.273 16.2766 20.3164C15.0621 20.5726 12.4495 21.0842 9.94272 21.1547C9.94603 21.1603 11.9914 21.8076 15.5049 21.4512C15.4781 21.5021 15.4504 21.5526 15.4245 21.604C14.2625 21.9007 12.1239 22.4009 10.0499 22.549C10.0529 22.5534 11.9051 23.0573 15.0279 22.593C15.0103 22.6498 14.9966 22.7077 14.9807 22.765C13.9549 23.0436 12.0758 23.5094 10.249 23.6584C10.2517 23.662 11.951 24.1115 14.7949 23.6232C14.799 23.6188 14.8027 23.6142 14.8067 23.6096C14.7967 23.6839 14.7865 23.7584 14.7789 23.8329C13.8032 24.0955 12.1324 24.501 10.5054 24.6315C10.5074 24.633 12.2939 24.9774 14.751 24.6208C14.7528 24.6949 14.752 24.769 14.7566 24.8431C13.8968 25.0754 12.4382 25.4283 11.0174 25.5378C11.0192 25.5391 12.6319 25.8583 14.8378 25.5218C14.852 25.6039 14.8639 25.6864 14.8812 25.7682C14.0588 25.9839 12.7803 26.278 11.5328 26.3704C11.534 26.3715 13.0123 26.6693 15.0457 26.375C15.072 26.4575 15.0967 26.5404 15.1265 26.6222C14.3061 26.8346 13.0627 27.1152 11.8492 27.2029C11.8506 27.2043 13.334 27.5072 15.3715 27.2106C15.4057 27.2858 15.4415 27.3601 15.4783 27.4341C14.6634 27.6379 13.4994 27.8881 12.3616 27.9665C12.3628 27.9679 13.7966 28.2681 15.7806 27.9989C15.8303 28.0837 15.8843 28.1656 15.9368 28.2487C15.1386 28.4395 14.0646 28.6558 13.013 28.7243C13.0143 28.7256 14.3854 29.019 16.3005 28.7852C16.3398 28.839 16.3809 28.8915 16.4212 28.9443C15.6653 29.112 14.7231 29.2828 13.7986 29.3385C13.7995 29.3393 15.0493 29.6149 16.8278 29.4425C16.926 29.5555 17.0262 29.6661 17.1291 29.7751C16.3858 29.9347 15.4715 30.0941 14.5739 30.1435C14.5749 30.1445 15.8295 30.4289 17.6137 30.2602C17.7411 30.3799 17.8709 30.4969 18.0035 30.6107C17.2815 30.7583 16.4118 30.9005 15.558 30.9424C15.5587 30.9434 16.8075 31.2358 18.5858 31.0781C18.7025 31.1664 18.82 31.2533 18.9394 31.3373C18.1986 31.4894 17.2846 31.6396 16.3883 31.6788C16.3895 31.6799 17.7487 32.0087 19.6531 31.8081C19.9288 31.9761 20.2084 32.1331 20.4911 32.2785C24.6221 34.4034 27.9948 34.4101 28.0072 34.4075C28.5713 34.4099 29.0082 34.654 29.0081 34.6536C30.0269 35.489 29.2207 39.2535 26.3784 38.2666C24.9927 37.7938 23.6517 37.6874 22.6395 37.7063C22.4443 37.7098 22.2615 37.7179 22.093 37.7289C19.6742 37.6945 10.2297 38.0207 7.0892 32.2328C7.07903 32.2737 8.48596 37.0608 15.6683 38.3553C13.4063 38.3107 12.1685 37.8887 12.168 37.886C10.9746 37.4863 9.82639 36.917 8.7932 36.1536C3.74437 32.4391 2.0386 25.186 3.79265 19.102C4.81833 15.548 7.18564 12.6334 10.3447 10.3588C12.4155 8.86542 14.7205 7.53337 17.1559 6.54006C17.8065 10.2174 21.1625 11.902 21.157 11.9117C18.8528 10.2969 18.1247 7.34455 17.9342 6.23644C18.306 6.09737 19.1121 5.80039 19.8183 5.5473C19.9656 8.40822 21.7505 10.9182 23.8643 12.2125C23.3868 12.3587 22.4207 12.5769 20.6522 12.7612C18.8731 12.9494 17.8834 13.0487 17.349 13.2873C16.929 13.4759 16.8283 13.9902 17.1508 14.2947C17.5987 14.7181 18.4836 15.3653 19.8133 15.4922C20.1536 15.5248 20.4972 15.4653 20.8081 15.3278C21.7128 14.9229 23.8278 13.9365 24.9978 12.7705C25.4313 12.9347 25.871 13.0483 26.3099 13.0994C29.5428 13.4857 30.7017 12.0129 30.7052 12.0065C29.5444 12.7471 27.7238 12.489 27.722 12.4908C22.1811 11.6282 21.3683 6.848 21.2616 5.3033C22.5055 5.89891 23.8148 6.24452 25.125 6.41706C25.066 4.01235 30.4004 2.74612 30.4098 2.77016C26.923 4.30456 26.6141 5.78865 26.7425 6.54671C30.6231 6.6625 34.3152 5.51606 35.7073 4.76853C37.7836 3.6356 40.3628 3.63238 40.3604 3.6346C39.5031 4.20594 37.5707 5.94977 37.2898 7.49115C37.0077 9.02621 39.6148 9.39809 41.217 9.52984C42.3897 9.62126 43.5795 9.55699 44.7534 9.56275C45.9927 9.56763 47.5694 9.44363 48.7308 9.95857C48.7813 9.98073 48.8212 10.0263 48.8207 10.0764C48.8172 10.3648 48.05 10.393 47.8343 10.4137ZM26.0317 27.8242C26.0244 27.8645 26.3702 29.4455 19.046 28.6077C19.0515 28.595 23.4335 28.7984 26.0317 27.8242ZM27.2495 28.4223C27.4868 30.2412 20.6551 29.4914 19.8899 29.4513C26.9859 29.3853 27.249 28.4611 27.2495 28.4223ZM27.6479 29.3387C28.1407 31.2993 21.9741 30.3057 21.2852 30.2306C27.1056 30.5387 27.6443 29.365 27.6479 29.3387ZM23.3368 31.3995C26.4453 31.4036 27.2919 30.9947 27.2927 30.9878C26.88 32.811 23.3462 31.3874 23.3368 31.3995ZM33.4047 41.7049C33.4047 41.7049 30.8833 39.6735 29.8569 37.6594C29.8569 37.6594 32.8559 38.6029 33.4047 41.7049ZM33.4466 38.1041C33.4466 38.1041 31.0234 38.0124 30.4053 36.4804C30.4053 36.4804 32.8888 37.2761 33.4466 38.1041ZM38.7486 34.3648C38.7486 34.3648 32.8373 37.9134 30.69 35.5723C30.69 35.5723 34.8818 35.68 38.7486 34.3648ZM34.9098 33.1078C37.2301 32.2701 38.8928 31.8539 40.1411 32.1883C40.1411 32.1883 33.0204 35.6191 30.69 34.2678C30.69 34.2678 32.5895 33.9456 34.9098 33.1078ZM31.7535 46.5556C30.3482 40.7684 28.9421 39.1636 28.9421 39.1636C32.289 39.9628 31.7535 46.5556 31.7535 46.5556ZM28.0951 39.9867C29.747 42.4038 30.69 47.5961 30.69 47.5961C28.4663 45.9398 28.0951 39.9867 28.0951 39.9867ZM18.495 39.2372C18.7394 39.2122 18.9837 39.1876 19.2281 39.1636C19.3127 40.17 20.045 42.1118 20.0429 42.1123C19.0863 40.9066 18.495 39.2377 18.495 39.2372ZM16.9203 39.3126C17.2203 39.3036 17.5203 39.2955 17.8205 39.2883C18.5206 42.2246 20.265 43.5674 20.2634 43.5703C17.9103 42.4526 16.9206 39.3163 16.9203 39.3126ZM15.2479 39.272C15.5649 39.2883 15.8818 39.3056 16.1985 39.324C17.0143 42.1019 19.5128 44.132 19.507 44.1378C16.8785 43.0624 15.2525 39.2757 15.2479 39.272ZM13.638 39.1542C13.9448 39.1764 14.2511 39.1995 14.5574 39.2239C15.4006 41.9919 17.9989 44.0218 17.9926 44.0281C15.3525 42.9807 13.6428 39.1575 13.638 39.1542ZM1.43418 19.0195C2.51852 8.83484 13.958 4.33891 13.9856 4.44784C3.00771 11.2414 1.49019 19.0966 1.43418 19.0195ZM33.3725 2.68351C33.4379 2.58167 33.5999 2.57846 33.6773 2.6762C34.0843 3.19058 34.6106 3.47248 35.5701 3.3353C36.6445 3.18316 36.9584 2.1217 36.9587 2.12048C36.9668 2.09256 37.0572 2.16381 37.063 2.17123C37.0965 2.21334 37.0969 2.27628 37.096 2.32437C37.0924 2.50045 37.0069 2.67675 36.9147 2.82756C36.4465 3.59515 35.449 3.99905 34.4764 3.96171C34.1211 3.94764 33.6433 3.84603 33.3997 3.58728C33.1522 3.324 33.1966 2.9581 33.3725 2.68351ZM35.2813 1.09038C35.8816 1.12651 36.3442 1.58482 36.3145 2.10962C36.2849 2.63486 35.7794 3.02791 35.1854 2.99234C34.5913 2.95655 34.1286 2.50499 34.1518 1.97942C34.1749 1.45439 34.6809 1.05415 35.2813 1.09038ZM35.0897 0.481698C35.3633 0.37388 35.7148 0.417872 36.005 0.466961C36.2358 0.505967 36.4618 0.56924 36.6764 0.655672C36.8625 0.730359 37.0959 0.817678 37.1967 0.985223C37.2692 1.10634 37.189 1.21914 37.0789 1.29017C36.9995 1.34126 36.9059 1.38913 36.8077 1.40608C36.6703 1.43002 36.6197 1.36952 36.5627 1.26757C36.2679 0.740997 35.5993 0.544196 34.9778 0.534777C35.0265 0.497877 35.086 0.48325 35.0897 0.481698ZM44.0558 1.08074C42.6286 2.36504 38.4312 0.909873 38.1194 0.816238C40.4367 1.44498 44.0513 1.07354 44.0558 1.08074ZM47.749 1.4124C48.5017 1.46126 49.2615 1.76766 49.4886 2.46898C49.9486 3.89811 48.7245 5.26695 47.8699 6.29506C47.2483 7.03837 46.5615 7.78491 46.0601 8.60624C45.8591 8.93512 45.6233 9.02754 45.2038 9.0077C44.8486 8.99086 44.4875 8.98166 44.1234 8.97357C44.168 8.86465 44.2167 8.73334 44.2236 8.71804C44.522 8.04764 44.8656 7.39529 45.2373 6.75713C45.4208 6.44221 45.6406 6.14657 45.8301 5.83475C45.9885 5.57346 46.2595 5.19747 46.1501 4.88078C46.0156 4.49283 45.4386 4.41404 45.0577 4.41703C44.5026 4.42091 43.9378 4.55256 43.4762 4.81052C42.5944 5.30274 41.7565 5.85037 40.8663 6.32575C40.0784 6.74672 39.2676 7.13179 38.4411 7.48638C38.383 7.17678 38.501 6.86429 38.6688 6.5897C39.2008 5.7184 39.9457 5.0307 40.7551 4.36617C41.5319 3.72823 42.3726 3.1457 43.278 2.64982C44.5766 1.93798 46.1361 1.30646 47.749 1.4124ZM50.8527 9.62693C50.7544 9.52754 50.6186 9.46504 50.4773 9.43601C49.4284 9.21993 48.3623 9.09549 47.2978 9.0618C47.2959 9.06136 47.2943 9.06091 47.2925 9.06036C46.7152 8.91852 46.8335 8.55218 46.8533 8.50132C47.2763 7.67478 47.9772 6.97579 48.652 6.29142C49.4706 5.45956 50.3012 4.5641 50.5372 3.45776C50.7176 2.61239 50.4358 1.58839 49.6563 0.971503C49.1658 0.583887 48.8058 0.53644 48.1967 0.595502C47.5113 0.662321 46.8208 0.701457 46.1291 0.719298C42.3743 0.815482 38.6236 0.288465 34.875 0.0883411C28.2511 -0.272126 21.4841 0.434403 15.4915 2.87867C14.5064 3.2798 13.5434 3.73036 12.6108 4.22657C10.5353 4.07432 8.45226 3.95918 6.36291 3.88162C6.28812 3.82987 -1.41835 10.8807 0.231628 20.4649C0.174733 20.9109 0.133858 21.3578 0.109773 21.8047C-0.0770442 25.2864 0.73839 28.7437 2.53067 31.6529C4.81534 35.3381 8.57722 37.8612 12.5577 38.8826C13.1521 40.2466 15.0558 43.9826 18.632 44.7123C18.6335 44.7046 21.3346 45.1405 20.885 42.727C20.5586 41.0039 20.6637 39.4508 20.7563 38.6989C21.6005 38.4721 22.4489 38.256 23.3187 38.2285C24.6047 38.1865 25.999 38.6533 26.6906 39.8035C27.2452 40.7258 27.2586 41.8886 27.4347 42.969C27.7897 45.147 28.8627 47.1693 30.3601 48.5844C30.5958 48.8068 30.8727 49.0257 31.1785 48.9976C31.4323 48.9741 31.6481 48.7843 31.8385 48.591C33.2725 47.1336 34.1864 45.0007 34.2372 42.8222C34.2657 41.6043 34.0335 40.3375 34.4314 39.1972C35.5251 36.0444 40.3395 36.3206 41.943 33.4608C42.0635 33.2437 42.1633 33.007 42.1764 32.756C42.2265 31.8554 41.2142 31.2886 40.3392 31.1248C36.0137 30.3183 31.9611 33.3859 27.721 33.5085C27.0133 33.5292 26.3146 33.4665 25.6276 33.3348C26.5862 33.0719 27.8378 32.3706 28.3912 30.445C29.0482 28.1783 27.4702 27.5532 26.3852 27.4038C25.9399 27.3412 25.4869 27.3697 25.0499 27.4753C24.2069 27.6782 22.2276 28.0873 19.7915 28.1487C18.0882 28.1924 17.0074 27.4651 16.3541 26.7553C16.0221 26.1517 15.7884 25.5057 15.7209 24.8146C15.5738 23.3192 16.2518 21.818 17.2932 20.6881C18.333 19.5578 19.7046 18.7543 21.1095 18.0636C24.0462 16.6178 27.2272 15.5855 30.5173 15.0184C30.8671 16.1223 30.317 17.7565 30.4661 18.2665C30.5397 18.5208 30.7743 18.7098 31.0046 18.8397C31.3145 19.0144 31.6926 19.0329 32.021 18.9001C34.3664 17.9589 34.3484 15.4008 34.2502 14.4879C35.4914 14.3104 36.72 14.092 37.9055 13.7125C40.2935 12.9486 42.4648 11.5359 45.0232 11.2457C46.8611 11.037 48.8879 11.4102 50.473 10.5817C50.8412 10.389 51.2144 9.99372 50.8527 9.62693Z" fill="#2E343E"/>
<path d="M42.1209 4.47966C42.1115 4.47645 45.025 2.26932 47.3382 2.714C47.7575 2.79368 48.084 3.10372 48.115 3.47782C48.1693 4.09027 47.7979 5.215 46.0488 7.27287C46.0427 7.26822 48.3736 5.1627 48.7872 3.52769C48.8863 3.12544 48.7673 2.68109 48.4061 2.39354C48.0311 2.09524 47.3385 1.87627 46.0907 2.20627C46.0895 2.20139 43.406 2.97341 42.1209 4.47966Z" fill="#2E343E"/>
<path d="M7.43164 19.5414C2.26803 30.8346 12.0738 35.3679 12.0738 35.3679C4.72792 30.7048 7.43164 19.5414 7.43164 19.5414Z" fill="#2E343E"/>
<path d="M4.42319 24.4999C4.42319 24.4999 6.19138 14.944 15.2479 9.01023C15.2479 9.01023 3.85832 13.5872 4.42319 24.4999Z" fill="#2E343E"/>
</svg>
