<svg width="139" height="120" viewBox="0 0 139 120" fill="none" xmlns="http://www.w3.org/2000/svg">
<path fill-rule="evenodd" clip-rule="evenodd" d="M119.05 85.7524C105.536 78.4363 88.2342 73.0947 69.229 73.104C50.2235 73.0944 32.8393 78.4442 19.4079 85.7554C18.5983 86.1944 18.2704 87.1313 18.7041 87.8991C21.0941 92.1368 23.4374 96.3899 25.734 100.657C26.1406 101.411 27.0903 101.714 27.8854 101.343C38.6015 96.3215 53.1479 91.4541 69.2297 91.4631C85.3106 91.4534 99.8577 96.3203 110.574 101.341C111.368 101.711 112.318 101.409 112.725 100.654C115.021 96.3869 117.364 92.1344 119.754 87.8966C120.188 87.1283 119.861 86.1904 119.05 85.7524Z" fill="white"/>
<path d="M30.2952 104.889C29.1866 104.777 28.0777 104.668 26.9674 104.563C26.1312 104.484 25.3924 104 25.0021 103.276C23.0282 99.6217 21.0193 95.9785 18.9759 92.3464C11.4499 95.4218 5.81676 100.723 1.41557 105.263C1.21839 105.465 1.34984 105.799 1.63419 105.824C5.6252 105.661 9.6134 105.544 13.597 105.47C13.2856 109.754 12.9914 114.037 12.7154 118.32C12.6939 118.645 13.1102 118.812 13.3083 118.553C17.2898 113.35 22.2154 108.875 30.4755 106.04C31.0738 105.836 30.9261 104.953 30.2952 104.889Z" fill="white"/>
<path d="M108.193 104.889C109.301 104.777 110.411 104.668 111.521 104.563C112.358 104.483 113.096 104 113.486 103.276C115.46 99.6217 117.469 95.9785 119.512 92.3464C127.038 95.4218 132.671 100.723 137.073 105.263C137.27 105.465 137.138 105.799 136.854 105.824C132.863 105.661 128.875 105.544 124.891 105.47C125.203 109.754 125.497 114.037 125.773 118.32C125.794 118.645 125.378 118.812 125.18 118.553C121.198 113.35 116.273 108.875 108.013 106.04C107.415 105.836 107.562 104.953 108.193 104.889Z" fill="white"/>
<path d="M136.854 105.824C132.863 105.661 128.875 105.544 124.891 105.471C125.203 109.754 125.497 114.037 125.773 118.32C125.787 118.534 125.61 118.68 125.432 118.68C125.34 118.68 125.247 118.641 125.18 118.553C121.198 113.35 116.273 108.875 108.013 106.04C107.415 105.836 107.562 104.953 108.193 104.889C109.301 104.777 110.411 104.668 111.521 104.563C112.357 104.483 113.096 104 113.486 103.276C115.46 99.6218 117.469 95.9786 119.512 92.3463C127.038 95.4218 132.671 100.723 137.073 105.263C137.27 105.465 137.138 105.799 136.854 105.824ZM110.574 101.341C99.8683 96.325 85.3404 91.463 69.2777 91.463H69.2298H69.1857C53.1216 91.463 38.5916 96.3262 27.8852 101.343C27.6554 101.451 27.4127 101.501 27.174 101.501C26.5867 101.501 26.0231 101.193 25.734 100.657C23.4375 96.3898 21.0942 92.1369 18.7042 87.8992C18.2704 87.1314 18.5984 86.1945 19.4078 85.7554C32.827 78.451 50.1915 73.1041 69.1767 73.1041H69.2291H69.2781C88.2626 73.1041 105.549 78.4429 119.05 85.7524C119.861 86.1903 120.188 87.1284 119.754 87.8966C117.364 92.1343 115.021 96.3868 112.725 100.654C112.436 101.191 111.872 101.499 111.285 101.499C111.046 101.499 110.804 101.448 110.574 101.341ZM26.9675 104.563C28.0777 104.668 29.1866 104.777 30.2951 104.889C30.926 104.953 31.074 105.836 30.4755 106.04C22.2154 108.875 17.2898 113.35 13.3083 118.553C13.2408 118.641 13.1484 118.68 13.0563 118.68C12.8776 118.68 12.7011 118.534 12.7154 118.32C12.9914 114.037 13.2856 109.754 13.597 105.471C9.61339 105.544 5.62537 105.661 1.63435 105.824C1.34983 105.799 1.21838 105.465 1.41556 105.263C5.81675 100.723 11.4499 95.4218 18.976 92.3463C21.0193 95.9786 23.0282 99.6218 25.0023 103.276C25.3924 104 26.1312 104.483 26.9675 104.563ZM138.02 104.343C133.367 99.5441 127.588 94.22 120.012 91.1242L119.561 90.9405C120.008 90.1406 120.456 89.3404 120.904 88.5452C121.276 87.8857 121.366 87.1221 121.156 86.3956C120.934 85.6269 120.409 84.9858 119.677 84.5909C112.443 80.6739 104.665 77.5855 96.5623 75.4121C87.587 73.0047 78.4073 71.7838 69.2781 71.7838H69.2528H69.2291H69.2036H69.1767C60.0408 71.7838 50.8514 73.0054 41.8629 75.4151C33.7289 77.596 25.9614 80.685 18.7771 84.596C18.0471 84.9918 17.5225 85.6336 17.3016 86.4023C17.093 87.1279 17.1828 87.8902 17.5547 88.5485C18.0042 89.3459 18.4534 90.1486 18.9017 90.9505L18.4769 91.1242C10.9012 94.22 5.12188 99.5441 0.467983 104.344C0.0210811 104.804 -0.118465 105.463 0.104547 106.064C0.329492 106.669 0.870948 107.081 1.51749 107.139L1.60255 107.146L1.68813 107.143C5.16617 107.001 8.68707 106.893 12.176 106.819C11.9038 110.615 11.6421 114.448 11.3978 118.235C11.3678 118.689 11.5282 119.14 11.8393 119.472C12.1532 119.807 12.5969 120 13.0563 120C13.5696 120 14.0439 119.765 14.3574 119.354C19.0026 113.284 23.9514 109.675 30.9041 107.289C31.7457 107.001 32.2636 106.18 32.162 105.291C32.0569 104.374 31.3441 103.669 30.4287 103.575C29.3275 103.464 28.2049 103.354 27.092 103.249C26.6929 103.21 26.3461 102.987 26.1644 102.65C26.1623 102.646 26.1602 102.642 26.1581 102.638C26.4786 102.754 26.8199 102.821 27.174 102.821C27.615 102.821 28.0422 102.726 28.443 102.54C42.2599 96.0649 55.9672 92.783 69.1857 92.783H69.2066L69.2298 92.7833L69.2545 92.783H69.2777C82.495 92.783 96.2005 96.0645 110.014 102.536C110.417 102.724 110.844 102.819 111.285 102.819C111.653 102.819 112.007 102.747 112.338 102.623C112.334 102.631 112.329 102.639 112.324 102.648C112.142 102.987 111.795 103.21 111.396 103.249C110.286 103.354 109.164 103.464 108.06 103.575C107.144 103.669 106.431 104.374 106.327 105.291C106.225 106.18 106.742 107.001 107.586 107.29C114.537 109.675 119.486 113.284 124.131 119.355C124.444 119.765 124.918 120 125.432 120C125.891 120 126.335 119.807 126.649 119.472C126.96 119.14 127.12 118.689 127.09 118.233C126.846 114.45 126.585 110.617 126.312 106.819C129.802 106.893 133.324 107.001 136.8 107.143L136.885 107.146L136.971 107.139C137.617 107.081 138.159 106.669 138.384 106.064C138.606 105.463 138.467 104.804 138.02 104.343Z" fill="#2E343E"/>
<mask id="mask0_147_2407" style="mask-type:luminance" maskUnits="userSpaceOnUse" x="1" y="73" width="137" height="46">
<path d="M1.32129 73.1041H137.167V118.68H1.32129V73.1041Z" fill="white"/>
</mask>
<g mask="url(#mask0_147_2407)">
<g opacity="0.199997">
<path d="M69.2296 90.1753H69.2082H69.1855C55.582 90.1753 41.5022 93.5403 27.341 100.176C27.2876 100.201 27.2314 100.213 27.1739 100.213C27.0695 100.213 26.9342 100.17 26.8678 100.046C24.5761 95.7882 22.2065 91.4884 19.8251 87.2663C19.798 87.2178 19.7926 87.1749 19.8075 87.1229C19.82 87.0806 19.8651 86.9723 20.0235 86.8862C27.0277 83.0736 34.6029 80.0618 42.5385 77.9344C51.3064 75.5834 60.2687 74.3921 69.1766 74.3921H69.2303H69.2781C78.1791 74.3921 87.1317 75.5825 95.8867 77.9311C103.793 80.0517 111.38 83.0644 118.439 86.8857C118.547 86.9444 118.625 87.0294 118.651 87.1189C118.666 87.1714 118.66 87.2145 118.632 87.2642C116.252 91.4863 113.882 95.7861 111.591 100.043C111.525 100.167 111.389 100.212 111.285 100.212C111.227 100.212 111.171 100.199 111.12 100.175C96.958 93.5398 82.8801 90.1753 69.2776 90.1753H69.2296ZM111.285 101.499C111.872 101.499 112.436 101.191 112.725 100.654C115.021 96.3869 117.364 92.1344 119.754 87.8967C120.188 87.1285 119.861 86.1904 119.05 85.7525C105.549 78.443 88.2624 73.1043 69.2781 73.1043H69.2289H69.1766C50.1914 73.1043 32.8269 78.4511 19.4079 85.7555C18.5982 86.1947 18.2705 87.1313 18.704 87.8993C21.0941 92.1371 23.4374 96.3899 25.7339 100.657C26.023 101.193 26.5866 101.501 27.1739 101.501C27.4126 101.501 27.6553 101.45 27.8853 101.343C38.5914 96.3263 53.1215 91.4631 69.1855 91.4631H69.2296H69.2776C85.3404 91.4631 99.8682 96.3251 110.574 101.341C110.803 101.448 111.046 101.499 111.285 101.499Z" fill="#373536"/>
<path d="M14.1955 115.419C14.4138 112.136 14.6437 108.833 14.8813 105.564L14.9841 104.157L13.5733 104.183C10.4112 104.241 7.21223 104.329 4.03401 104.443C8.07493 100.433 12.6473 96.561 18.4194 93.9847C20.258 97.2655 22.0886 100.592 23.8687 103.886C24.4646 104.992 25.5776 105.724 26.8461 105.845C26.9914 105.858 27.1376 105.872 27.2829 105.887C21.095 108.522 17.0768 112.099 14.1955 115.419ZM30.2953 104.889C29.1867 104.777 28.0778 104.668 26.9677 104.563C26.1313 104.484 25.3925 104 25.0024 103.276C23.0283 99.6218 21.0195 95.9786 18.9761 92.3465C11.45 95.4219 5.81705 100.723 1.41569 105.263C1.21851 105.465 1.34996 105.799 1.63448 105.824C5.62549 105.661 9.61352 105.544 13.5972 105.471C13.2857 109.754 12.9916 114.037 12.7155 118.32C12.7012 118.534 12.8779 118.68 13.0564 118.68C13.1485 118.68 13.2411 118.641 13.3084 118.553C17.2899 113.35 22.2155 108.875 30.4756 106.041C31.0741 105.836 30.9262 104.953 30.2953 104.889Z" fill="#373536"/>
<path d="M124.915 104.183L123.505 104.157L123.607 105.564C123.845 108.832 124.074 112.135 124.293 115.419C121.412 112.1 117.394 108.522 111.205 105.886C111.351 105.872 111.497 105.858 111.643 105.844C112.911 105.724 114.024 104.992 114.619 103.888C116.398 100.594 118.229 97.2672 120.069 93.9846C125.841 96.5609 130.414 100.433 134.454 104.443C131.277 104.329 128.079 104.241 124.915 104.183ZM137.072 105.263C132.671 100.723 127.038 95.422 119.512 92.3464C117.469 95.9785 115.46 99.6218 113.486 103.276C113.096 104 112.357 104.483 111.521 104.563C110.411 104.668 109.301 104.777 108.193 104.889C107.562 104.953 107.414 105.836 108.013 106.04C116.273 108.875 121.198 113.35 125.18 118.553C125.247 118.641 125.34 118.68 125.432 118.68C125.61 118.68 125.787 118.534 125.773 118.32C125.497 114.037 125.203 109.754 124.891 105.47C128.875 105.544 132.863 105.661 136.854 105.824C137.138 105.799 137.27 105.465 137.072 105.263Z" fill="#373536"/>
</g>
</g>
<path d="M109.573 15.2677C109.417 15.1101 109.201 15.011 108.976 14.9649C107.307 14.6222 105.611 14.4249 103.918 14.3715C103.915 14.3708 103.913 14.3701 103.91 14.3692C102.991 14.1442 103.18 13.5632 103.211 13.4826C103.884 12.1714 104.999 11.0632 106.072 9.97784C107.374 8.65857 108.696 7.23824 109.071 5.48386C109.358 4.14297 108.91 2.51915 107.67 1.54082C106.89 0.926086 106.317 0.850868 105.348 0.944359C104.257 1.05033 103.159 1.11254 102.059 1.14084C96.0863 1.29338 90.12 0.457565 84.157 0.140182C73.6203 -0.431488 62.8559 0.688843 53.3234 4.56544C51.7565 5.20162 50.2246 5.91617 48.741 6.70312C45.4396 6.46166 42.126 6.27907 38.8025 6.15605C38.6835 6.07398 26.4247 17.2562 29.0492 32.456C28.9589 33.1631 28.8938 33.8721 28.8555 34.5808C28.5584 40.1025 29.8555 45.5855 32.7065 50.1994C36.3407 56.0439 42.3248 60.0453 48.6566 61.6652C49.6021 63.8284 52.6303 69.7534 58.3191 70.9106C58.3215 70.8985 62.6182 71.5897 61.9029 67.7621C61.3838 65.0294 61.5509 62.5662 61.6982 61.3737C63.0412 61.0141 64.3907 60.6714 65.7743 60.6279C67.82 60.5613 70.0378 61.3015 71.138 63.1256C72.0202 64.5883 72.0416 66.4325 72.3217 68.1459C72.8864 71.6001 74.5931 74.8071 76.9751 77.0515C77.3501 77.4043 77.7905 77.7514 78.277 77.7066C78.6806 77.6695 79.024 77.3685 79.3268 77.062C81.6079 74.7507 83.0614 71.3679 83.1425 67.9131C83.1878 65.9815 82.8184 63.9725 83.4514 62.1642C85.1912 57.1641 92.8495 57.602 95.4002 53.0665C95.5923 52.7223 95.7506 52.3467 95.7715 51.9489C95.8511 50.5205 94.2409 49.6216 92.849 49.3618C85.9683 48.0828 79.5219 52.9477 72.7771 53.1423C71.6513 53.175 70.5399 53.0757 69.447 52.8667C70.9719 52.4499 72.9626 51.3376 73.8431 48.2837C74.8882 44.6889 72.3781 43.6976 70.6522 43.4605C69.9438 43.3614 69.2233 43.4066 68.5281 43.5741C67.1872 43.8958 64.0387 44.5447 60.1635 44.642C57.4541 44.7111 55.7349 43.5579 54.6955 42.4323C54.1674 41.4749 53.7958 40.4503 53.6884 39.3542C53.4541 36.9825 54.5328 34.6019 56.1895 32.8099C57.8435 31.0174 60.0253 29.7429 62.26 28.6477C66.9315 26.3547 71.9915 24.7175 77.2252 23.8183C77.7816 25.569 76.9066 28.1606 77.1438 28.9693C77.2608 29.3728 77.6339 29.6723 78.0004 29.8786C78.4933 30.1556 79.0947 30.1849 79.6171 29.9744C83.3481 28.4817 83.3194 24.4247 83.1632 22.9768C85.1376 22.6953 87.092 22.3491 88.9777 21.747C92.7764 20.5357 96.2302 18.2952 100.299 17.8351C103.224 17.504 106.448 18.0957 108.969 16.7821C109.555 16.4763 110.148 15.8494 109.573 15.2677Z" fill="#F4F3F2"/>
<path d="M109.705 15.4371C108.284 15.8095 105.205 16.0852 102.467 15.9634C98.718 15.797 91.4757 17.2524 86.4491 19.4472C83.5135 20.7292 80.0808 21.0187 76.9253 21.2904C73.3748 21.5962 69.5634 18.6889 66.1784 19.9978C64.0846 20.8071 61.9512 24.0059 59.9014 24.9528C58.1508 25.7612 56.3112 26.6114 54.7415 27.744C52.6021 29.2882 50.0368 30.8526 49.2945 33.5697C48.5981 36.1174 49.8198 38.7563 51.4556 40.666C52.2342 41.5751 53.1562 42.357 54.1707 42.9914C54.6902 43.3163 55.2338 43.6023 55.7942 43.8497C56.1302 43.9977 57.1178 44.563 57.4742 44.4597L57.8166 44.3604C56.4054 43.9588 55.3954 43.1902 54.6955 42.4322C54.1674 41.4748 53.7957 40.4502 53.6883 39.3542C53.4542 36.9824 54.5327 34.6018 56.1894 32.8098C57.8436 31.0173 60.0254 29.743 62.2599 28.6477C66.9314 26.3546 71.9914 24.7174 77.2251 23.8182C77.7817 25.5689 76.9065 28.1607 77.1437 28.9694C77.2608 29.3729 77.6339 29.6724 78.0004 29.8787C78.4932 30.1555 79.0946 30.1848 79.6171 29.9743C83.348 28.4816 83.3193 24.4248 83.1631 22.9768C85.1375 22.6952 87.0921 22.3492 88.9776 21.7471C92.7763 20.5358 96.2301 18.2951 100.299 17.835C103.223 17.5039 106.448 18.0958 108.969 16.782C109.498 16.5057 110.031 15.9674 109.705 15.4371Z" fill="#BCC5CA"/>
<path d="M61.8568 7.72931L61.3289 11.0555C61.3289 11.0555 46.8229 14.6529 40.9452 25.1367C40.9452 25.1367 26.1579 41.5417 46.1685 57.6822L55.5963 60.4304L60.3202 61.6333L61.385 68.3611L60.5636 69.8255L58.3192 70.9105L55.8661 69.8768L50.824 64.892L49.4576 61.521L37.4322 54.8461L31.2634 43.5412L33.6498 25.5478L45.963 12.4832L61.5298 6.28685L61.8568 7.72931Z" fill="#BCC5CA"/>
<path d="M64.8682 10.7411C64.8682 10.7411 70.6348 13.5861 81.5361 11.0555C81.5361 11.0555 65.5302 17.878 64.8682 10.7411Z" fill="#BCC5CA"/>
<path d="M70.8874 53.5556C70.8874 53.5556 73.7653 56.5363 70.8874 56.5363C68.0095 56.5363 48.5679 57.2043 43.0004 40.5538C43.0004 40.5538 41.6307 56.3667 68.3696 58.5404C68.3696 58.5404 72.2386 59.7291 70.5788 60.9478L72.1664 62.2827L75.3392 60.4303L76.1748 56.382L75.0501 53.9157L70.8874 53.5556Z" fill="#BCC5CA"/>
<path d="M89.3177 12.5822V9.78795C89.3177 9.78795 98.8951 0.371899 105.678 1.44847C105.678 1.44847 108.386 2.66177 108.111 3.9979C107.837 5.33404 107.015 7.90368 107.015 7.90368L105.302 9.99374L101.942 14.2897L100.334 14.8928L94.8867 14.2897L89.3177 12.5822Z" fill="#F1726B"/>
<path d="M75.9235 55.2514L78.4931 52.8556L92.1253 49.8814L93.6019 51.5001L88.1543 56.8446L82.81 59.7252L82.3796 63.4162L82.2448 67.972L78.6988 76.2704H76.9806L74.2278 72.9301L72.7052 63.6798L74.8958 60.4304C74.8958 60.4304 78.6394 57.3808 75.9235 55.2514Z" fill="#BCC5CA"/>
<path d="M82.3111 16.2349C82.9116 16.6082 83.617 16.8234 84.3329 16.88C84.7201 16.9103 85.1104 16.9015 85.4939 16.8567C85.6093 16.8433 85.8402 16.7574 85.9532 16.7816C86.0021 16.7878 79.5827 15.4384 88.0189 8.06834C87.5639 8.33229 87.1215 8.614 86.6847 8.89993C85.7255 9.52802 84.7964 10.1937 83.925 10.9141C83.2929 11.4365 82.6755 11.9796 82.152 12.5929C81.6907 13.1328 81.1772 13.7761 81.1392 14.4859C81.0981 15.2559 81.6506 15.8244 82.3111 16.2349Z" fill="#2E343E"/>
<path d="M90.3014 17.7397C87.2098 19.1931 83.9012 20.9394 77.1265 21.2165C77.1358 21.2081 82.7608 21.8636 87.1878 20.1549C91.6358 18.4518 92.4046 17.3436 97.8056 16.3637C97.808 16.3576 93.3909 16.2892 90.3014 17.7397Z" fill="#2E343E"/>
<path d="M85.054 4.54848C85.6703 4.58644 86.1944 4.17926 86.2246 3.63658C86.2548 3.09407 85.7761 2.62081 85.1552 2.58267C84.5345 2.54471 84.0103 2.95629 83.9843 3.49897C83.9584 4.04236 84.4372 4.51052 85.054 4.54848Z" fill="#2E343E"/>
<path d="M104.772 16.5154C103.867 16.5998 102.954 16.6388 102.051 16.733C100.13 16.9331 98.2292 17.2408 96.3697 17.6735C93.9837 18.229 91.8965 19.2696 89.6593 20.1277C87.3726 21.0023 84.7847 21.7408 82.3281 22.0143C79.4126 22.338 76.5173 22.7703 73.6514 23.3091C70.867 23.8326 68.187 24.4424 65.6273 25.339C65.6173 25.3327 58.7793 26.7172 52.3974 26.7109C52.4002 26.7184 55.3271 27.721 60.4884 27.6818C58.23 28.0976 53.3158 28.9417 48.6176 28.9984C48.6211 29.0069 51.7451 30.0327 57.2075 29.8364C57.2119 29.8564 57.2098 29.8483 57.2147 29.8683C54.959 30.3144 50.1151 31.2103 45.4739 31.3229C45.4788 31.3329 48.8707 32.4071 54.7484 32.0148C54.6878 32.0821 54.6309 32.1515 54.5723 32.2204C52.6404 32.6267 48.4844 33.4381 44.4969 33.5499C44.5022 33.5588 47.7558 34.5853 53.3448 34.0202C53.3021 34.1008 53.258 34.181 53.2169 34.2625C51.3685 34.733 47.9665 35.5262 44.6674 35.7612C44.6721 35.7682 47.6186 36.5673 52.586 35.831C52.558 35.9211 52.5362 36.0129 52.5109 36.1037C50.8792 36.5455 47.8901 37.2843 44.9841 37.5207C44.9885 37.5263 47.6915 38.2393 52.2153 37.4648C52.2218 37.4578 52.2278 37.4506 52.2341 37.4432C52.2181 37.5611 52.202 37.6792 52.1899 37.7973C50.6379 38.2138 47.9801 38.857 45.392 39.0638C45.3951 39.0663 48.237 39.6125 52.1456 39.047C52.1484 39.1644 52.1472 39.2819 52.1544 39.3995C50.7868 39.7678 48.4665 40.3276 46.2065 40.5012C46.2093 40.5033 48.7746 41.0094 52.2835 40.4759C52.3062 40.6061 52.3252 40.7369 52.3526 40.8666C51.0444 41.2087 49.0108 41.6751 47.0263 41.8217C47.0283 41.8235 49.3798 42.2957 52.6143 41.8289C52.6561 41.9598 52.6955 42.0913 52.7429 42.221C51.4379 42.5579 49.4599 43.0028 47.5296 43.142C47.5317 43.1441 49.8916 43.6246 53.1325 43.1542C53.187 43.2735 53.2439 43.3912 53.3025 43.5086C52.0062 43.8318 50.1546 44.2286 48.3447 44.353C48.3466 44.3551 50.6274 44.8312 53.7833 44.4044C53.8624 44.5388 53.9483 44.6687 54.0318 44.8005C52.7621 45.1031 51.0537 45.4461 49.3809 45.5547C49.383 45.5568 51.5639 46.0222 54.6103 45.6514C54.6729 45.7366 54.7382 45.8199 54.8024 45.9037C53.6 46.1696 52.1011 46.4405 50.6305 46.5289C50.6319 46.5301 52.6201 46.9671 55.4491 46.6939C55.6053 46.8729 55.7647 47.0483 55.9283 47.2213C54.746 47.4743 53.2916 47.7272 51.8639 47.8056C51.8654 47.8072 53.8611 48.2581 56.6993 47.9906C56.9019 48.1804 57.1084 48.366 57.3193 48.5465C56.1709 48.7806 54.7874 49.0061 53.4292 49.0725C53.4304 49.0741 55.4168 49.5378 58.2456 49.2878C58.4312 49.4278 58.6182 49.5656 58.808 49.6988C57.6297 49.9401 56.1758 50.1782 54.75 50.2404C54.7519 50.2422 56.914 50.7636 59.9434 50.4455C60.3819 50.7119 60.8267 50.961 61.2764 51.1915C67.8476 54.5615 73.2125 54.572 73.2324 54.568C74.1297 54.5717 74.8246 54.9588 74.8244 54.9583C76.4451 56.2832 75.1627 62.2534 70.6413 60.6883C68.4372 59.9384 66.3039 59.7697 64.6938 59.7995C64.3833 59.8052 64.0926 59.818 63.8246 59.8354C59.977 59.7809 44.9535 60.2983 39.9578 51.119C39.9416 51.1838 42.1796 58.7759 53.6047 60.8288C50.0065 60.7582 48.0375 60.0888 48.0366 60.0846C46.1383 59.4507 44.3119 58.5478 42.6684 57.3371C34.6371 51.4462 31.9237 39.9432 34.7139 30.2945C36.3455 24.6581 40.1112 20.0358 45.1364 16.4284C48.4305 14.06 52.0971 11.9474 55.971 10.3721C57.006 16.2042 62.3444 18.8757 62.3356 18.8912C58.6704 16.3302 57.5121 11.648 57.2091 9.8906C57.8005 9.67005 59.0828 9.19907 60.2062 8.79768C60.4404 13.3349 63.2796 17.3155 66.6422 19.3682C65.8827 19.6001 64.3458 19.9462 61.5326 20.2384C58.7025 20.5368 57.1283 20.6945 56.2782 21.0728C55.6101 21.3719 55.45 22.1875 55.963 22.6705C56.6754 23.3419 58.0831 24.3683 60.1982 24.5697C60.7395 24.6213 61.2861 24.527 61.7806 24.3089C63.2197 23.6667 66.584 22.1023 68.4453 20.2532C69.1349 20.5136 69.8343 20.6938 70.5324 20.7748C75.675 21.3874 77.5185 19.0517 77.5241 19.0415C75.6776 20.2161 72.7814 19.8068 72.7786 19.8096C63.9647 18.4415 62.6718 10.8605 62.502 8.41071C64.4806 9.3553 66.5635 9.90343 68.6476 10.177C68.5537 6.36336 77.0392 4.3552 77.0542 4.39333C71.5077 6.82678 71.0163 9.18044 71.2205 10.3827C77.3935 10.5663 83.2665 8.74812 85.481 7.5626C88.7838 5.76585 92.8866 5.76075 92.8827 5.76427C91.519 6.67037 88.4452 9.43597 87.9983 11.8805C87.5496 14.315 91.6967 14.9048 94.2454 15.1137C96.1107 15.2587 98.0034 15.1568 99.8708 15.1659C101.842 15.1736 104.35 14.977 106.198 15.7936C106.278 15.8288 106.341 15.901 106.341 15.9805C106.335 16.4379 105.115 16.4825 104.772 16.5154ZM70.0898 44.1272C70.0782 44.1912 70.6283 46.6986 58.9776 45.3699C58.9864 45.3496 65.9568 45.6723 70.0898 44.1272ZM72.027 45.0758C72.4045 47.9604 61.5372 46.7714 60.32 46.7078C71.6077 46.603 72.0263 45.1374 72.027 45.0758ZM72.6607 46.5292C73.4447 49.6385 63.6353 48.0627 62.5396 47.9437C71.7982 48.4323 72.6551 46.5709 72.6607 46.5292ZM65.8031 49.7974C70.7478 49.8039 72.0945 49.1554 72.0957 49.1445C71.4393 52.036 65.818 49.7783 65.8031 49.7974ZM81.8183 66.1411C81.8183 66.1411 77.8074 62.9194 76.1746 59.7252C76.1746 59.7252 80.9452 61.2216 81.8183 66.1411ZM81.8849 60.4304C81.8849 60.4304 78.0302 60.2851 77.047 57.8554C77.047 57.8554 80.9976 59.1173 81.8849 60.4304ZM90.3189 54.5002C90.3189 54.5002 80.9157 60.128 77.4998 56.4152C77.4998 56.4152 84.1679 56.586 90.3189 54.5002ZM84.2123 52.5068C87.9034 51.1782 90.5482 50.5181 92.5339 51.0485C92.5339 51.0485 81.2069 56.4895 77.4998 54.3464C77.4998 54.3464 80.5215 53.8353 84.2123 52.5068ZM79.1917 73.834C76.9561 64.6559 74.7195 62.1109 74.7195 62.1109C80.0435 63.3783 79.1917 73.834 79.1917 73.834ZM73.3721 63.4162C75.9999 67.2494 77.4998 75.4842 77.4998 75.4842C73.9626 72.8574 73.3721 63.4162 73.3721 63.4162ZM58.1012 62.2275C58.4899 62.1878 58.8785 62.1488 59.2674 62.1109C59.4018 63.7069 60.5668 66.7864 60.5634 66.7872C59.0417 64.875 58.1012 62.2282 58.1012 62.2275ZM55.5962 62.347C56.0735 62.3328 56.5506 62.32 57.0283 62.3086C58.1419 66.9653 60.9167 69.0949 60.9142 69.0994C57.171 67.3269 55.5967 62.353 55.5962 62.347ZM52.9359 62.2827C53.4402 62.3086 53.9442 62.336 54.4481 62.3651C55.7457 66.7707 59.7202 69.9903 59.7109 69.9996C55.5298 68.294 52.9432 62.2885 52.9359 62.2827ZM50.375 62.0959C50.863 62.1311 51.3504 62.1678 51.8375 62.2065C53.1789 66.5962 57.3119 69.8156 57.3019 69.8256C53.1023 68.1645 50.3827 62.1012 50.375 62.0959ZM30.9623 30.1636C32.6871 14.0115 50.8841 6.88126 50.9281 7.05401C33.4653 17.8282 31.0514 30.2859 30.9623 30.1636ZM81.7669 4.25591C81.871 4.0944 82.1288 4.08931 82.2518 4.24431C82.8992 5.06009 83.7364 5.50716 85.2627 5.2896C86.9718 5.04831 87.4711 3.36491 87.4716 3.36298C87.4844 3.3187 87.6283 3.43169 87.6375 3.44347C87.6907 3.51025 87.6914 3.61007 87.69 3.68634C87.6842 3.96558 87.5482 4.24519 87.4016 4.48437C86.6569 5.70171 85.0701 6.34227 83.5229 6.28304C82.9577 6.26073 82.1977 6.09957 81.8102 5.68922C81.4165 5.27168 81.4872 4.69138 81.7669 4.25591ZM84.8033 1.72932C85.7583 1.78661 86.4941 2.51347 86.4468 3.34576C86.3998 4.17876 85.5957 4.8021 84.6508 4.74569C83.7057 4.68893 82.9697 3.97279 83.0066 3.13927C83.0433 2.30662 83.8482 1.67185 84.8033 1.72932ZM84.4986 0.763985C84.9337 0.592995 85.4929 0.662766 85.9546 0.740616C86.3217 0.802475 86.6811 0.902824 87.0226 1.03989C87.3185 1.15835 87.6898 1.29683 87.8501 1.56255C87.9656 1.75462 87.838 1.93353 87.6628 2.04617C87.5364 2.12719 87.3876 2.20311 87.2313 2.23C87.0129 2.26796 86.9324 2.172 86.8417 2.01032C86.3727 1.17522 85.3091 0.863106 84.3206 0.848167C84.3981 0.789642 84.4926 0.766449 84.4986 0.763985ZM98.761 1.71403C96.4908 3.75083 89.814 1.44304 89.3179 1.29454C93.0042 2.29168 98.754 1.70261 98.761 1.71403ZM104.636 2.24001C105.833 2.31751 107.042 2.80343 107.403 3.91567C108.135 6.18217 106.188 8.35307 104.828 9.98357C103.839 11.1624 102.747 12.3464 101.949 13.6489C101.63 14.1705 101.255 14.3171 100.587 14.2856C100.022 14.2589 99.4478 14.2443 98.8686 14.2315C98.9396 14.0588 99.0171 13.8505 99.0279 13.8263C99.5026 12.763 100.049 11.7285 100.641 10.7164C100.932 10.2169 101.282 9.74808 101.584 9.25355C101.835 8.83916 102.266 8.24288 102.092 7.74062C101.879 7.12536 100.961 7.00041 100.355 7.00516C99.4719 7.01131 98.5733 7.22009 97.8391 7.6292C96.4363 8.40983 95.1035 9.27833 93.6874 10.0322C92.4341 10.6999 91.1443 11.3106 89.8296 11.8729C89.7372 11.3819 89.9249 10.8863 90.1918 10.4509C91.0382 9.06902 92.223 7.97839 93.5107 6.92449C94.7463 5.91277 96.0836 4.98891 97.5238 4.20248C99.5894 3.07354 102.07 2.07201 104.636 2.24001ZM109.573 15.2677C109.417 15.11 109.201 15.0109 108.976 14.9649C107.307 14.6222 105.611 14.4248 103.918 14.3714C103.915 14.3707 103.913 14.37 103.91 14.3691C102.991 14.1442 103.18 13.5632 103.211 13.4825C103.884 12.1717 104.999 11.0631 106.072 9.97776C107.374 8.65849 108.696 7.23836 109.071 5.48379C109.358 4.14308 108.91 2.51909 107.67 1.54076C106.89 0.926018 106.317 0.850807 105.348 0.944473C104.258 1.05045 103.159 1.11248 102.059 1.14077C96.0863 1.29331 90.12 0.457504 84.157 0.140121C73.6202 -0.431557 62.8559 0.68895 53.3234 4.56538C51.7565 5.20155 50.2246 5.91611 48.741 6.70306C45.4396 6.4616 42.126 6.27901 38.8025 6.15599C38.6835 6.07392 26.4247 17.2561 29.0494 32.4559C28.9589 33.1633 28.8938 33.872 28.8555 34.5808C28.5583 40.1025 29.8555 45.5855 32.7065 50.1993C36.3407 56.0438 42.3248 60.0452 48.6566 61.6652C49.6021 63.8283 52.6304 69.7534 58.3191 70.9106C58.3215 70.8985 62.6182 71.5896 61.9029 67.7621C61.3838 65.0293 61.5509 62.5662 61.6982 61.3738C63.0412 61.0141 64.3907 60.6714 65.7742 60.6278C67.82 60.5612 70.0378 61.3014 71.1379 63.1256C72.0202 64.5882 72.0416 66.4324 72.3217 68.1459C72.8864 71.6 74.5931 74.8072 76.9751 77.0516C77.3501 77.4043 77.7905 77.7514 78.277 77.7067C78.6806 77.6695 79.024 77.3684 79.3268 77.062C81.6079 74.7506 83.0616 71.368 83.1424 67.913C83.1878 65.9815 82.8184 63.9724 83.4514 62.1641C85.1912 57.164 92.8495 57.6019 95.4002 53.0665C95.5919 52.7222 95.7506 52.3468 95.7715 51.9488C95.8511 50.5204 94.2408 49.6215 92.849 49.3618C85.9683 48.0827 79.5219 52.9477 72.7771 53.1422C71.6513 53.1749 70.5399 53.0756 69.447 52.8667C70.9719 52.4498 72.9628 51.3376 73.8431 48.2838C74.8882 44.6889 72.3781 43.6975 70.6522 43.4606C69.9438 43.3613 69.2233 43.4065 68.5281 43.574C67.1872 43.8958 64.0387 44.5446 60.1635 44.642C57.4541 44.7112 55.7348 43.5578 54.6955 42.432C54.1674 41.4748 53.7957 40.4502 53.6884 39.3542C53.4543 36.9826 54.5328 34.6019 56.1895 32.8098C57.8435 31.0173 60.0253 29.743 62.26 28.6477C66.9315 26.3546 71.9915 24.7175 77.2252 23.8182C77.7816 25.5689 76.9066 28.1607 77.1438 28.9694C77.2608 29.3728 77.6339 29.6724 78.0003 29.8785C78.4933 30.1555 79.0947 30.1848 79.6171 29.9743C83.3481 28.4816 83.3194 24.4247 83.1632 22.9768C85.1376 22.6952 87.092 22.349 88.9777 21.7471C92.7764 20.5356 96.2302 18.2951 100.3 17.835C103.224 17.5039 106.448 18.0958 108.969 16.7818C109.555 16.4762 110.148 15.8494 109.573 15.2677Z" fill="#2E343E"/>
<path d="M95.6831 7.1045C95.6682 7.0994 100.303 3.59905 103.982 4.30429C104.649 4.43064 105.169 4.92236 105.218 5.51565C105.304 6.48696 104.714 8.2707 101.931 11.5343C101.922 11.527 105.629 8.18775 106.287 5.59473C106.445 4.9568 106.256 4.25209 105.681 3.79605C105.085 3.32297 103.983 2.97571 101.998 3.49906C101.996 3.49132 97.7273 4.71569 95.6831 7.1045Z" fill="#2E343E"/>
<path d="M40.5025 30.9913C32.2887 48.9016 47.8869 56.0911 47.8869 56.0911C36.2017 48.6957 40.5025 30.9913 40.5025 30.9913Z" fill="#2E343E"/>
<path d="M35.7169 38.8552C35.7169 38.8552 38.5296 23.7002 52.9359 14.2896C52.9359 14.2896 34.8184 21.5483 35.7169 38.8552Z" fill="#2E343E"/>
<path d="M29.252 85.605C29.1543 85.3468 28.9214 85.4002 28.6863 85.4893C28.4787 85.5679 28.2689 85.682 28.3666 85.9401L31.7069 94.7615C31.7989 95.0043 32.0376 94.9662 32.245 94.8875C32.4803 94.7986 32.6843 94.6692 32.5922 94.4262L29.252 85.605ZM26.54 85.9199C26.3732 85.4797 26.4983 84.8073 28.1861 84.1683C29.8876 83.5242 30.4405 83.9399 30.6071 84.3803L34.4132 94.4313C34.5798 94.8715 34.441 95.5491 32.7395 96.1932C31.0517 96.8322 30.5127 96.4113 30.3459 95.9709L26.54 85.9199Z" fill="#373535"/>
<path d="M36.9714 94.5566C36.8589 94.5937 36.7493 94.5445 36.7085 94.4211L33.2879 84.0788C33.2624 84.0016 33.1821 83.9941 32.8451 84.1055L32.0163 84.3796C31.904 84.4167 31.8031 84.3475 31.7572 84.2088L31.4666 83.3301C31.4207 83.1915 31.4604 83.0756 31.5727 83.0386L35.7444 81.6592C35.8567 81.6219 35.9576 81.6912 36.0034 81.83L36.1957 82.741C36.2416 82.8799 36.202 82.9955 36.0895 83.0326L35.275 83.302C34.9378 83.4136 34.8776 83.4675 34.9031 83.5447L38.3237 93.8871C38.3645 94.0104 38.3058 94.1153 38.1935 94.1526L36.9714 94.5566Z" fill="#373535"/>
<path d="M40.3215 81.8086C40.2997 81.7304 40.2768 81.703 39.9347 81.7984C39.721 81.8582 39.4162 81.9768 39.4904 82.2427L41.8701 91.4391C41.8919 91.5173 41.9762 91.5443 42.3182 91.4489L42.5604 91.3814C42.9168 91.2819 42.9465 91.2231 42.9247 91.1449L40.3215 81.8086ZM45.3748 93.9843C45.2608 94.0161 45.1536 93.9618 45.1186 93.8367L44.691 92.5232C44.607 92.277 44.5599 92.2733 44.4459 92.3051L41.1683 93.2191C41.0687 93.2469 41.0304 93.2745 41.0859 93.5286L41.3852 94.8779C41.42 95.003 41.3564 95.105 41.2423 95.1368L40.4158 95.3672C40.3019 95.399 40.1946 95.3447 40.1598 95.2197L39.7044 93.2565C39.5967 92.8146 39.454 92.2476 40.1807 92.045C40.2234 92.0331 40.2575 91.99 40.2445 91.9429L37.7339 82.2773C37.6117 81.8395 37.817 80.9227 39.5554 80.4378C40.2963 80.2312 41.0219 80.0795 41.3813 80.0467C41.5326 80.0382 41.6212 80.0807 41.6606 80.2217L44.5905 90.731C44.6037 90.7778 44.6552 90.7971 44.6979 90.7853C45.4105 90.5866 45.5817 91.1456 45.7465 91.5716L46.3442 93.4948C46.379 93.62 46.3438 93.714 46.2013 93.7539L45.3748 93.9843Z" fill="#373535"/>
<path d="M51.3479 90.7317C51.2177 90.7591 51.114 90.6981 51.0873 90.5709L48.5699 78.6409C48.5398 78.498 48.6098 78.4003 48.74 78.3727L49.9849 78.1102C50.1151 78.0826 50.2188 78.1437 50.249 78.2868L52.7663 90.2166C52.7932 90.3437 52.7229 90.4416 52.5927 90.469L51.3479 90.7317ZM47.2951 83.921C47.2415 83.6668 46.942 83.6802 46.7004 83.6814C46.5956 83.6871 46.4875 83.6765 46.3717 83.7009C46.3137 83.7132 46.2805 83.77 46.2939 83.8336L47.6145 90.0925C47.6279 90.156 47.7105 90.1885 48.0578 90.115C48.2894 90.0662 48.569 89.9574 48.5152 89.7033L47.2951 83.921ZM43.6773 79.6734C43.6404 79.4987 43.7139 79.4168 43.833 79.4082L45.0924 79.1425C45.2148 79.1498 45.3117 79.1792 45.3419 79.3221L45.9485 82.1973C45.9654 82.2768 46.0188 82.3152 46.3831 82.3214L47.7395 82.3007C48.5045 82.272 48.7855 82.7437 48.8524 83.0614L50.3139 89.9874C50.4111 90.4482 50.1121 91.1087 48.3461 91.4812C47.5935 91.6401 46.8049 91.7733 46.4408 91.7671C46.3216 91.7756 46.2181 91.7146 46.1912 91.5875L43.6773 79.6734Z" fill="#373535"/>
<path d="M56.7562 89.8562C56.6392 89.8732 56.5397 89.8056 56.5209 89.6771L55.5349 84.7513C55.4999 84.5104 55.2879 84.4919 55.0683 84.5239C54.8194 84.5601 54.6509 84.6339 54.6859 84.8749L55.1303 89.8794C55.1489 90.008 55.0728 90.1011 54.941 90.1201L53.6822 90.3032C53.565 90.3203 53.4654 90.2528 53.4467 90.1242L52.993 85.0554C52.944 84.7181 53.0745 84.4858 53.7907 84.1684L54.3752 83.87C54.3898 83.8679 54.4291 83.8294 54.4267 83.8134C54.4242 83.7972 54.3782 83.7876 54.3636 83.7897L53.7183 83.6704C52.9389 83.554 52.7475 83.3684 52.7007 83.0472L51.6908 78.0594C51.6697 77.9148 51.7458 77.8216 51.8628 77.8046L53.1218 77.6214C53.2536 77.6023 53.3532 77.67 53.3742 77.8144L54.3725 82.7221C54.4098 82.9792 54.5903 82.9857 54.8391 82.9495C55.0588 82.9177 55.259 82.8556 55.2217 82.5985L54.7648 77.6121C54.7439 77.4675 54.8198 77.3745 54.937 77.3575L56.196 77.1744C56.3278 77.1552 56.4273 77.2227 56.4483 77.3673L56.9167 82.434C56.9634 82.7553 56.8183 82.9897 56.0897 83.3254L55.5053 83.6236C55.4907 83.6257 55.4784 83.644 55.4806 83.66C55.483 83.6762 55.5023 83.706 55.5169 83.7039L56.1622 83.8234C56.9538 83.9215 57.1599 84.1048 57.2089 84.4422L58.2043 89.4323C58.2231 89.5608 58.1469 89.6539 58.0152 89.673L56.7562 89.8562Z" fill="#373535"/>
<path d="M65.0901 89.0945C64.972 89.1012 64.8788 89.0249 64.8716 88.8954L64.6613 85.1346L64.6954 82.5635C64.6943 82.5473 64.6483 82.5173 64.6335 82.5182C64.6187 82.5191 64.6057 82.5523 64.6066 82.5684L63.4831 88.973C63.4756 89.1034 63.4063 89.1887 63.2882 89.1952L62.0032 89.2671C61.8851 89.2737 61.7918 89.1976 61.7846 89.0679L61.1038 76.8942C61.0957 76.7483 61.1799 76.6624 61.298 76.6557L62.583 76.5838C62.7011 76.5772 62.7944 76.6534 62.8025 76.7993L63.012 80.5438L62.9786 83.131C62.9796 83.1473 63.0248 83.161 63.0396 83.1601C63.0543 83.1594 63.0682 83.1422 63.0673 83.1261L64.1908 76.7216C64.1975 76.5749 64.2667 76.4897 64.3848 76.4831L65.67 76.4113C65.7881 76.4048 65.8812 76.4807 65.8895 76.6267L66.5701 88.8003C66.5773 88.93 66.4932 89.0161 66.3751 89.0226L65.0901 89.0945Z" fill="#373535"/>
<path d="M73.4327 78.0653C73.4427 77.7896 73.1482 77.7465 72.9116 77.7379C72.5568 77.7252 72.4818 77.7549 72.4788 77.8361L72.2322 84.6824C72.2298 84.7472 72.2723 84.7975 72.3315 84.7996C72.4498 84.804 72.5545 84.7752 72.6586 84.7627C72.8967 84.7224 73.1942 84.6845 73.2035 84.4249L73.4327 78.0653ZM70.5817 88.9929C70.4631 89.0048 70.3759 88.953 70.3824 88.7744L70.8209 76.607C70.8262 76.461 70.9172 76.3993 71.0365 76.371C71.3936 76.3188 72.1938 76.299 72.9624 76.3265C74.766 76.3914 75.1737 76.9907 75.1569 77.4611L74.8845 85.0214C74.8732 85.3294 74.6771 85.8422 73.9181 85.9612L72.5788 86.1568C72.2208 86.2252 72.1742 86.2884 72.172 86.3535L72.0825 88.8356C72.0778 88.9653 71.9867 89.027 71.8679 89.0391L70.5817 88.9929Z" fill="#373535"/>
<path d="M80.7067 89.7076C80.5742 89.6937 80.4944 89.6037 80.5081 89.4744L81.7849 77.3491C81.8001 77.2038 81.8968 77.1323 82.0293 77.1463L83.2944 77.2796C83.427 77.2936 83.5067 77.3836 83.4915 77.5289L82.2145 89.6543C82.201 89.7835 82.1042 89.8549 81.9717 89.841L80.7067 89.7076ZM78.947 81.9802C78.9743 81.7219 78.6852 81.6424 78.455 81.5691C78.3536 81.5423 78.2541 81.499 78.1364 81.4867C78.0775 81.4806 78.0283 81.5243 78.0216 81.5888L77.3515 87.9502C77.3448 88.0149 77.4134 88.0709 77.7664 88.1082C78.0016 88.133 78.3012 88.1156 78.3283 87.8572L78.947 81.9802ZM76.8125 76.8253C76.8311 76.6476 76.9262 76.5924 77.0422 76.6209L78.3223 76.7557C78.4363 76.8005 78.5196 76.8581 78.5044 77.0035L78.1966 79.9258C78.188 80.0065 78.2272 80.0597 78.5717 80.1775L79.8684 80.5754C80.6051 80.7836 80.7273 81.3189 80.6933 81.6417L79.9519 88.6813C79.9027 89.1494 79.4149 89.6858 77.6202 89.4967C76.8552 89.416 76.0642 89.3 75.7196 89.1821C75.6036 89.1537 75.5238 89.0635 75.5375 88.9345L76.8125 76.8253Z" fill="#373535"/>
<path d="M86.9493 83.0841C86.9932 82.828 86.7099 82.73 86.4848 82.6419C86.3855 82.6083 86.289 82.5588 86.1724 82.5387C86.114 82.5287 86.062 82.5692 86.0511 82.6333L84.9682 88.9376C84.9571 89.0015 85.0218 89.0622 85.3717 89.1223C85.6051 89.1623 85.9049 89.1644 85.9488 88.9084L86.9493 83.0841ZM85.155 77.801C85.1798 77.6569 85.281 77.5921 85.3977 77.6121L89.1009 78.2481C89.2175 78.2683 89.2885 78.3794 89.2492 78.5208L88.9903 79.4154C88.9365 79.5544 88.8764 79.6428 88.7452 79.6203L87.0539 79.3298C86.704 79.2695 86.6256 79.289 86.6119 79.3691L86.3342 80.9852C86.3205 81.0652 86.356 81.1207 86.6922 81.2608L87.9603 81.7423C88.6819 81.998 88.7689 82.54 88.7139 82.86L87.5155 89.8365C87.4359 90.3004 86.9141 90.8039 85.1353 90.4983C84.3772 90.3681 83.5953 90.2008 83.2593 90.0607C83.1453 90.0247 83.0716 89.9296 83.0938 89.8017L85.155 77.801Z" fill="#373535"/>
<path d="M92.9543 80.4546C92.965 80.407 92.9397 80.3849 92.8242 80.3589C92.6654 80.323 92.6474 80.3357 92.6367 80.3833L90.777 87.1039C90.7593 87.1831 90.8567 87.2216 91.1742 87.2932L91.3185 87.3255C91.6361 87.3968 91.7408 87.4037 91.7585 87.3246L92.9543 80.4546ZM91.2189 91.613C91.0892 91.5838 91.0203 91.4852 91.0487 91.3583L91.4962 88.8964C91.5069 88.8488 91.4164 88.7787 91.0988 88.7071L90.7814 88.6358C90.4639 88.5644 90.3521 88.5892 90.3416 88.6368L89.692 91.0534C89.6636 91.1801 89.5594 91.2399 89.4293 91.2107L88.1882 90.9316C88.0584 90.9025 87.9895 90.8037 88.018 90.677L91.5046 79.0804C91.5615 78.827 91.8352 78.6887 93.1339 78.9807C94.3897 79.263 94.5921 79.5083 94.5352 79.7617L92.723 91.7349C92.6944 91.8615 92.59 91.9212 92.4599 91.892L91.2189 91.613Z" fill="#373535"/>
<path d="M96.4552 92.9773C96.3269 92.9414 96.2631 92.8395 96.2979 92.7144L99.2543 82.1112C99.2761 82.033 99.2707 81.9977 98.9143 81.8984C98.6862 81.8348 98.4781 81.8105 98.4039 82.0764L95.5482 91.713C95.4218 92.1666 95.0797 92.6778 93.3411 92.1931C93.226 92.1104 93.1678 92.0436 93.207 91.9028L93.3557 90.9835C93.3994 90.8273 93.4926 90.769 93.6065 90.8008C93.9484 90.896 94.0186 90.8651 94.036 90.8025L96.8831 81.197C97.0051 80.7593 97.5551 80.053 99.2935 80.5378C100.049 80.7485 100.748 80.9941 101.073 81.152C101.192 81.219 101.26 81.3055 101.221 81.4462L97.9511 93.1753C97.9161 93.3005 97.8089 93.3548 97.6806 93.3189L96.4552 92.9773Z" fill="#373535"/>
<path d="M101.683 94.6094C101.556 94.5678 101.512 94.4674 101.552 94.3442L102.856 89.4917C102.932 89.2605 102.764 89.154 102.555 89.0336C102.462 88.9858 102.373 88.9225 102.261 88.8854C102.205 88.867 102.148 88.8993 102.122 88.9765L100.471 93.9875C100.43 94.111 100.32 94.1602 100.208 94.1231L98.9855 93.7202C98.8732 93.6833 98.8143 93.5783 98.8549 93.455L102.671 81.8754C102.717 81.7366 102.827 81.6874 102.939 81.7245L104.161 82.1272C104.274 82.1643 104.332 82.2692 104.287 82.4079L102.635 87.4191C102.61 87.4962 102.642 87.5409 102.698 87.5595C102.81 87.5966 102.914 87.6134 103.017 87.6305C103.262 87.643 103.455 87.6723 103.536 87.4256L105.298 82.7415C105.344 82.6026 105.454 82.5532 105.58 82.5951L106.788 82.9933C106.901 83.0304 106.96 83.1351 106.914 83.2739L105.183 87.8656C105.081 88.174 104.775 88.5348 103.979 88.4944L103.234 88.4371C103.22 88.4326 103.201 88.4433 103.196 88.4586C103.191 88.474 103.195 88.5095 103.209 88.5141L103.847 88.8953C104.506 89.3518 104.542 89.8084 104.441 90.1168L103.168 94.8767C103.127 95.0001 103.018 95.0493 102.905 95.0124L101.683 94.6094Z" fill="#373535"/>
<path d="M109.983 85.6261C110 85.5806 109.978 85.5549 109.868 85.5129C109.715 85.4551 109.696 85.4651 109.678 85.5107L106.892 91.9024C106.863 91.9783 106.954 92.0302 107.258 92.1456L107.396 92.198C107.701 92.3135 107.803 92.3349 107.832 92.259L109.983 85.6261ZM106.694 96.4287C106.57 96.3815 106.516 96.2741 106.562 96.1527L107.351 93.7783C107.368 93.7326 107.289 93.6503 106.985 93.535L106.68 93.4196C106.376 93.3041 106.262 93.3131 106.244 93.3586L105.262 95.6595C105.216 95.7811 105.104 95.8254 104.979 95.7783L103.79 95.3272C103.665 95.2801 103.611 95.1726 103.657 95.0511L108.741 84.0613C108.833 83.8183 109.123 83.7202 110.368 84.1923C111.571 84.6487 111.737 84.9198 111.645 85.1627L108.166 96.7611C108.12 96.8825 108.008 96.927 107.884 96.8799L106.694 96.4287Z" fill="#373535"/>
</svg>
