<svg width="218" height="52" viewBox="0 0 218 52" fill="none" xmlns="http://www.w3.org/2000/svg">
<path d="M2.38971 16.8901C2.89103 17.7 3.64851 18.3976 4.6625 18.9825C5.67613 19.5674 6.89597 19.8598 8.32217 19.8598C9.69258 19.8598 10.8428 19.486 11.7732 18.7378C12.7032 17.9898 13.1686 16.9238 13.1686 15.5403C13.1686 14.4379 12.7785 13.5016 11.9987 12.7309C11.2187 11.9605 10.1271 11.5751 8.72323 11.5751H7.353V9.49973H8.72323C9.87061 9.49973 10.8148 9.2241 11.556 8.67285C12.2966 8.12196 12.6672 7.23319 12.6672 6.00691C12.6672 4.73592 12.2911 3.79099 11.5392 3.1723C10.7872 2.5538 9.84847 2.24418 8.72323 2.24418C6.52839 2.24418 4.87384 2.94729 3.75994 4.35333L1.70451 3.45902C2.40636 2.39049 3.43417 1.5468 4.78774 0.928117C6.1415 0.309611 7.63715 9.99098e-08 9.27487 9.99098e-08C11.5919 9.99098e-08 13.5055 0.503676 15.0151 1.51013C16.5246 2.51713 17.2796 3.83034 17.2796 5.45011C17.2796 6.87868 16.8116 8.00373 15.8757 8.82471C14.94 9.64604 13.731 10.1352 12.2493 10.2926C12.9847 10.3491 13.6837 10.5035 14.3468 10.7566C15.0095 11.0099 15.6167 11.3502 16.1682 11.7775C16.7198 12.2052 17.1568 12.7536 17.4801 13.4227C17.8031 14.092 17.9646 14.8373 17.9646 15.6583C17.9646 16.6598 17.7643 17.551 17.363 18.3328C16.962 19.1148 16.4495 19.7362 15.8256 20.1973C15.2017 20.6586 14.472 21.0383 13.6364 21.3361C12.8008 21.6345 12.0013 21.8366 11.2384 21.9437C10.4752 22.0505 9.69258 22.104 8.89046 22.104C6.74025 22.104 4.92415 21.6795 3.44249 20.8299C1.96066 19.9809 0.813103 18.8533 0 17.4469L2.38971 16.8901Z" fill="#FEFEFE"/>
<path d="M19.9867 18.6955C19.9867 17.627 20.3042 16.3081 20.9393 14.7387C21.5743 13.1696 22.3401 11.64 23.2372 10.1493C24.1337 8.65885 25.0976 7.18252 26.1282 5.72015C27.1585 4.25795 28.0416 3.06261 28.7769 2.13449C29.5123 1.20656 30.0637 0.551384 30.4313 0.168798H34.7094C35.556 3.21733 36.804 6.84501 38.4529 11.052C40.1016 15.2592 41.6447 18.8306 43.0819 21.7664H38.3025C36.4417 18.2795 33.9183 11.907 30.7321 2.64908C30.576 2.90807 30.3645 3.2624 30.0972 3.71206C29.8297 4.16226 29.3534 5.01149 28.6683 6.25995C27.9831 7.50859 27.3787 8.67567 26.8551 9.76118C26.3312 10.8469 25.8551 11.9998 25.4264 13.2202C24.9973 14.4409 24.783 15.4111 24.783 16.1308C24.783 17.312 25.4067 17.9025 26.6545 17.9025C27.5792 17.9025 28.6822 17.5987 29.9635 16.9913C31.2444 16.3839 32.3473 15.6921 33.2724 14.916L34.3252 16.9577C33.4449 17.5987 32.6761 18.1362 32.0189 18.5689C31.3615 19.0021 30.5204 19.514 29.4956 20.1044C28.4705 20.695 27.4652 21.1479 26.4792 21.4627C25.4932 21.7775 24.5711 21.9353 23.7134 21.9353C22.5547 21.9353 21.6438 21.6711 20.9811 21.1422C20.3182 20.6137 19.9867 19.7982 19.9867 18.6955Z" fill="#FEFEFE"/>
<path d="M44.7864 21.7665V0.337548H63.2692V21.7665H58.824V2.41289H49.2484V21.7665H44.7864Z" fill="#FEFEFE"/>
<path d="M71.1069 12.6381C71.1069 15.1015 71.6165 16.9803 72.636 18.2736C73.6553 19.5674 75.0284 20.2141 76.7554 20.2141C78.482 20.2141 79.8524 19.5674 80.8662 18.2736C81.8799 16.9803 82.387 15.1015 82.387 12.6381C82.387 11.2658 82.2811 9.9637 82.0696 8.73188C81.8577 7.50023 81.5375 6.36123 81.1086 5.31507C80.6797 4.2689 80.0919 3.43666 79.3456 2.8178C78.5989 2.19929 77.7355 1.88986 76.7554 1.88986C75.7749 1.88986 74.9113 2.19929 74.1651 2.8178C73.4185 3.43666 72.8282 4.2689 72.3937 5.31507C71.9591 6.36123 71.6358 7.50023 71.4243 8.73188C71.2126 9.9637 71.1069 11.2658 71.1069 12.6381ZM66.3106 12.1657C66.3106 10.9957 66.4387 9.83993 66.695 8.69825C66.9512 7.55657 67.3608 6.45979 67.9234 5.4079C68.4858 4.35619 69.1655 3.43111 69.9622 2.63232C70.7586 1.8337 71.742 1.19534 72.9116 0.717237C74.0815 0.239138 75.3625 0 76.7554 0C78.1479 0 79.4262 0.239138 80.5906 0.717237C81.7546 1.19534 82.738 1.8337 83.5403 2.63232C84.3422 3.43111 85.0218 4.35619 85.5789 5.4079C86.1358 6.45979 86.5424 7.55657 86.7989 8.69825C87.055 9.83993 87.1831 10.9957 87.1831 12.1657C87.1831 13.6842 86.9799 15.0341 86.5732 16.2153C86.1665 17.3963 85.6317 18.3497 84.969 19.0751C84.3061 19.8008 83.5123 20.3971 82.5876 20.8637C81.6627 21.3308 80.7268 21.6541 79.78 21.8341C78.833 22.0138 77.8248 22.104 76.7554 22.104C75.6858 22.104 74.6774 22.0138 73.7306 21.8341C72.7836 21.6541 71.8449 21.3308 70.9147 20.8637C69.9843 20.3971 69.1877 19.8008 68.525 19.0751C67.8621 18.3497 67.3273 17.3963 66.9207 16.2153C66.5138 15.0341 66.3106 13.6842 66.3106 12.1657Z" fill="#FEFEFE"/>
<path d="M94.6867 19.6911H99.817C101.176 19.6911 102.257 19.3482 103.059 18.6619C103.861 17.9758 104.262 16.9352 104.262 15.5402C104.262 14.4379 103.872 13.5015 103.092 12.7308C102.312 11.9605 101.221 11.5752 99.817 11.5752H96.3912V9.49967H100.151C102.546 9.49967 103.744 8.33545 103.744 6.00685C103.744 3.61099 102.546 2.41297 100.151 2.41297H94.6867V19.6911ZM90.2247 21.7666V0.337451H100.502C102.942 0.337451 104.836 0.779063 106.184 1.66211C107.532 2.54533 108.206 3.80792 108.206 5.45005C108.206 8.36354 106.585 9.97795 103.343 10.2927C105.036 10.4165 106.412 10.934 107.471 11.8451C108.529 12.7562 109.058 14.0274 109.058 15.6584C109.058 16.6597 108.863 17.5397 108.473 18.299C108.083 19.0582 107.596 19.6517 107.011 20.0792C106.426 20.5069 105.73 20.8528 104.922 21.117C104.114 21.3813 103.362 21.5555 102.666 21.6399C101.97 21.7244 101.248 21.7666 100.502 21.7666H90.2247Z" fill="#FEFEFE"/>
<path d="M111.782 21.7665V0.337548H127.357V2.41289H116.244V9.49959H124.45V11.0519H116.244V19.691H127.357V21.7665H111.782Z" fill="#FEFEFE"/>
<path d="M134.376 19.6911H143.617V2.41297H134.476C136.158 5.34882 137 8.19487 137 10.9508C137 13.8081 136.125 16.7214 134.376 19.6911ZM128.21 21.7666C128.354 21.5754 128.544 21.3083 128.778 20.9651C129.012 20.622 129.432 19.9247 130.039 18.8728C130.647 17.8211 131.181 16.7749 131.644 15.7343C132.106 14.694 132.527 13.4565 132.905 12.0223C133.284 10.5879 133.474 9.24104 133.474 7.98113C133.474 5.68633 132.816 3.13844 131.502 0.337454H148.063V19.1681H150.118V26.5753H148.681L147.712 21.7666H130.599L129.647 26.5753H128.21V21.7666Z" fill="#FEFEFE"/>
<path d="M152.124 21.7665V0.303734H156.586V9.66843H166.846V0.337539H171.292V11.2208C171.292 12.2444 171.227 13.226 171.099 14.165C170.971 15.1044 170.807 15.9173 170.606 16.6033C170.406 17.2896 170.183 17.9308 169.938 18.5268C169.693 19.1233 169.445 19.6151 169.194 20.0033C168.944 20.3914 168.718 20.7262 168.517 21.0072C168.317 21.2886 168.155 21.4909 168.033 21.6146L167.832 21.8001H164.924C164.98 21.7329 165.05 21.6315 165.133 21.4966C165.217 21.3615 165.37 21.0129 165.593 20.4504C165.816 19.8881 166.011 19.2497 166.178 18.5353C166.345 17.821 166.498 16.8285 166.638 15.5571C166.777 14.2861 166.846 12.9024 166.846 11.4064H156.586V21.7665H152.124Z" fill="#FEFEFE"/>
<path d="M173.347 18.6955C173.347 17.627 173.664 16.3081 174.3 14.7387C174.935 13.1696 175.7 11.64 176.597 10.1493C177.494 8.65885 178.458 7.18252 179.488 5.72015C180.519 4.25795 181.402 3.06261 182.137 2.13449C182.872 1.20656 183.424 0.551384 183.792 0.168798H188.07C188.916 3.21733 190.164 6.84501 191.813 11.052C193.462 15.2592 195.005 18.8306 196.442 21.7664H191.663C189.802 18.2795 187.279 11.907 184.092 2.64908C183.936 2.90807 183.725 3.2624 183.457 3.71206C183.19 4.16226 182.714 5.01149 182.029 6.25995C181.343 7.50859 180.739 8.67567 180.215 9.76118C179.692 10.8469 179.215 11.9998 178.787 13.2202C178.357 14.4409 178.143 15.4111 178.143 16.1308C178.143 17.312 178.767 17.9025 180.015 17.9025C180.939 17.9025 182.042 17.5987 183.324 16.9913C184.605 16.3839 185.708 15.6921 186.633 14.916L187.685 16.9577C186.805 17.5987 186.036 18.1362 185.379 18.5689C184.722 19.0021 183.881 19.514 182.856 20.1044C181.831 20.695 180.825 21.1479 179.839 21.4627C178.853 21.7775 177.931 21.9353 177.074 21.9353C175.915 21.9353 175.004 21.6711 174.341 21.1422C173.678 20.6137 173.347 19.7982 173.347 18.6955Z" fill="#FEFEFE"/>
<path d="M204.313 13.1274C202.163 11.8451 200.597 10.5965 199.617 9.38167C198.637 8.16666 198.147 6.94073 198.147 5.70319C198.147 4.97218 198.264 4.31951 198.498 3.7459C198.732 3.17229 199.016 2.69973 199.35 2.32859C199.684 1.95727 200.144 1.63961 200.729 1.37525C201.313 1.11108 201.851 0.914148 202.341 0.784651C202.831 0.655513 203.458 0.554277 204.221 0.480943C204.984 0.407968 205.603 0.365757 206.076 0.35431C206.55 0.343221 207.171 0.337496 207.94 0.337496H218V21.7664H213.555V2.41301H207.94C204.608 2.41301 202.943 3.5098 202.943 5.70319C202.943 8.06542 205.906 10.7934 211.833 13.8867V16.9914C210.396 16.2942 209.198 15.6642 208.24 15.1017L202.776 21.7664H197.295L204.313 13.1274Z" fill="#FEFEFE"/>
<path d="M0 41.4036C0 39.9752 0.250663 38.5747 0.752165 37.2022C1.25349 35.8299 1.94401 34.6011 2.82425 33.5153C3.70431 32.4299 4.81006 31.5555 6.1415 30.8917C7.47258 30.2281 8.90729 29.8962 10.4446 29.8962C11.982 29.8962 13.3942 30.2056 14.681 30.8241C15.9678 31.443 16.962 32.2865 17.664 33.355L15.9427 34.5868C15.4635 33.9345 14.7896 33.3636 13.9207 32.8742C13.0516 32.3849 12.1769 32.1402 11.2968 32.1402C10.283 32.1402 9.38895 32.3231 8.61482 32.6886C7.84033 33.0543 7.21642 33.5323 6.74309 34.1229C6.2694 34.7135 5.88251 35.4278 5.58171 36.2656C5.28092 37.1038 5.07454 37.9503 4.96329 38.8051C4.85187 39.6601 4.79625 40.5826 4.79625 41.5723C4.79625 42.9787 4.9633 44.2187 5.29757 45.293C5.63185 46.3672 6.09137 47.2222 6.6763 47.8575C7.26106 48.4932 7.91828 48.9686 8.64812 49.2834C9.37779 49.5984 10.1661 49.7558 11.0129 49.7558C12.4387 49.7558 13.6587 49.4635 14.6727 48.8785C15.6863 48.2936 16.444 47.5962 16.9453 46.7861L18.65 48.0348C17.1235 50.6783 14.4998 52 10.7788 52C9.73155 52 8.72607 51.9014 7.76239 51.7047C6.79871 51.5081 5.83238 51.1591 4.86303 50.6587C3.89368 50.1582 3.06074 49.5195 2.36473 48.7434C1.66819 47.9673 1.10008 46.9523 0.660226 45.6979C0.219839 44.4437 0 43.0123 0 41.4036Z" fill="#FEFEFE"/>
<path d="M20.8725 51.6625V30.1998H25.3345V44.9638C27.1169 44.0417 28.6767 43.0798 30.0136 42.0785C31.3506 41.0774 32.3922 40.1157 33.1387 39.1933C33.885 38.2709 34.4365 37.4047 34.7932 36.5948C35.1495 35.7847 35.3279 35.0255 35.3279 34.3168C35.3279 33.6756 35.1943 33.1188 34.9268 32.6464C34.6595 32.174 34.2917 31.8197 33.8239 31.5834V29.7948C34.4255 29.7948 35.0187 29.8538 35.6037 29.9719C36.1884 30.0901 36.7539 30.2815 37.2999 30.5457C37.8455 30.8102 38.3248 31.1307 38.737 31.5074C39.1491 31.8845 39.4807 32.3595 39.7314 32.9333C39.982 33.5069 40.1075 34.1426 40.1075 34.84C40.1075 36.2235 39.592 37.5902 38.5615 38.9402C37.531 40.2899 35.9128 41.7074 33.707 43.1921L40.2244 51.6625H34.9101L30.1139 45.2677C28.3424 46.2689 26.7492 47.0899 25.3345 47.7311V51.6625H20.8725Z" fill="#FEFEFE"/>
<path d="M41.0766 48.5916C41.0766 47.523 41.394 46.2041 42.0292 44.6348C42.6641 43.0656 43.4301 41.536 44.327 40.0453C45.2237 38.5549 46.1874 37.0786 47.218 35.6162C48.2483 34.154 49.1314 32.9586 49.8666 32.0305C50.6021 31.1026 51.1537 30.4474 51.5211 30.0648H55.7992C56.646 33.1134 57.8936 36.741 59.5425 40.9481C61.1912 45.1553 62.7347 48.7266 64.1715 51.6624H59.3925C57.5317 48.1755 55.0081 41.803 51.8221 32.5451C51.6657 32.8041 51.4543 33.1584 51.1868 33.6081C50.9193 34.0583 50.4434 34.9075 49.7583 36.156C49.0729 37.4046 48.4685 38.5717 47.9449 39.6572C47.4211 40.7429 46.9447 41.8959 46.516 43.1162C46.087 44.337 45.8728 45.3071 45.8728 46.0269C45.8728 47.2081 46.4967 47.7985 47.7444 47.7985C48.6691 47.7985 49.7721 47.4948 51.0533 46.8874C52.3342 46.2799 53.4371 45.5881 54.362 44.812L55.4148 46.8537C54.5347 47.4948 53.7659 48.0323 53.1089 48.4649C52.4511 48.8981 51.6104 49.41 50.5853 50.0005C49.5601 50.5911 48.555 51.0439 47.5688 51.3587C46.5828 51.6735 45.6611 51.8313 44.8034 51.8313C43.6443 51.8313 42.7336 51.5671 42.0707 51.0382C41.408 50.5097 41.0766 49.6942 41.0766 48.5916Z" fill="#FEFEFE"/>
<path d="M66.9123 46.7862C67.4136 47.5961 68.1711 48.2936 69.1851 48.8785C70.1989 49.4634 71.4185 49.7558 72.8449 49.7558C74.2153 49.7558 75.3656 49.382 76.2959 48.6338C77.2259 47.8858 77.6913 46.8198 77.6913 45.4363C77.6913 44.334 77.3012 43.3976 76.5214 42.6269C75.7415 41.8565 74.6497 41.4711 73.246 41.4711H71.8758V39.3958H73.246C74.3932 39.3958 75.3376 39.1201 76.0786 38.5689C76.8194 38.018 77.19 37.1292 77.19 35.9029C77.19 34.6319 76.8139 33.687 76.0617 33.0683C75.3098 32.4498 74.3711 32.1402 73.246 32.1402C71.051 32.1402 69.3966 32.8433 68.2827 34.2493L66.2273 33.355C66.9291 32.2865 67.9567 31.4428 69.3105 30.8241C70.6641 30.2056 72.1597 29.896 73.7975 29.896C76.1145 29.896 78.0281 30.3997 79.5377 31.4062C81.0474 32.4132 81.8022 33.7264 81.8022 35.3461C81.8022 36.7747 81.3343 37.8997 80.3985 38.7207C79.4626 39.5421 78.2536 40.0312 76.7721 40.1887C77.5074 40.2452 78.2065 40.3995 78.8693 40.6526C79.5321 40.9059 80.1395 41.2463 80.6909 41.6736C81.2424 42.1012 81.6794 42.6496 82.0029 43.3187C82.3258 43.988 82.4874 44.7334 82.4874 45.5543C82.4874 46.5558 82.2869 47.4471 81.8856 48.2289C81.4847 49.0109 80.9721 49.6322 80.3483 50.0933C79.7243 50.5546 78.9948 50.9343 78.1592 51.2321C77.3236 51.5305 76.5241 51.7326 75.761 51.8397C74.9978 51.9465 74.2153 52 73.413 52C71.2628 52 69.4469 51.5756 67.9651 50.726C66.4834 49.8769 65.3359 48.7494 64.5228 47.343L66.9123 46.7862Z" fill="#FEFEFE"/>
<path d="M85.228 51.6625V30.1998H89.6899V44.9638C91.4724 44.0417 93.0323 43.0798 94.3693 42.0785C95.706 41.0774 96.7476 40.1157 97.4941 39.1933C98.2405 38.2709 98.7919 37.4047 99.1485 36.5948C99.5051 35.7847 99.6835 35.0255 99.6835 34.3168C99.6835 33.6756 99.5498 33.1188 99.2823 32.6464C99.0149 32.174 98.6472 31.8197 98.1793 31.5834V29.7948C98.7809 29.7948 99.3742 29.8538 99.9591 29.9719C100.544 30.0901 101.109 30.2815 101.655 30.5457C102.201 30.8102 102.68 31.1307 103.093 31.5074C103.505 31.8845 103.836 32.3595 104.087 32.9333C104.337 33.5069 104.463 34.1426 104.463 34.84C104.463 36.2235 103.947 37.5902 102.917 38.9402C101.886 40.2899 100.268 41.7074 98.0622 43.1921L104.58 51.6625H99.2656L94.4694 45.2677C92.6981 46.2689 91.1046 47.0899 89.6899 47.7311V51.6625H85.228Z" fill="#FEFEFE"/>
<path d="M105.432 48.5916C105.432 47.523 105.75 46.2041 106.385 44.6348C107.02 43.0656 107.786 41.536 108.682 40.0453C109.579 38.5549 110.543 37.0786 111.574 35.6162C112.604 34.154 113.487 32.9586 114.222 32.0305C114.958 31.1026 115.509 30.4474 115.877 30.0648H120.155C121.001 33.1134 122.249 36.741 123.898 40.9481C125.547 45.1553 127.09 48.7266 128.527 51.6624H123.748C121.887 48.1755 119.364 41.803 116.178 32.5451C116.021 32.8041 115.81 33.1584 115.542 33.6081C115.275 34.0583 114.799 34.9075 114.114 36.156C113.429 37.4046 112.824 38.5717 112.3 39.6572C111.777 40.7429 111.3 41.8959 110.872 43.1162C110.443 44.337 110.228 45.3071 110.228 46.0269C110.228 47.2081 110.852 47.7985 112.1 47.7985C113.025 47.7985 114.128 47.4948 115.409 46.8874C116.69 46.2799 117.793 45.5881 118.718 44.812L119.77 46.8537C118.89 47.4948 118.122 48.0323 117.464 48.4649C116.807 48.8981 115.966 49.41 114.941 50.0005C113.916 50.5911 112.91 51.0439 111.924 51.3587C110.938 51.6735 110.017 51.8313 109.159 51.8313C108 51.8313 107.089 51.5671 106.426 51.0382C105.763 50.5097 105.432 49.6942 105.432 48.5916Z" fill="#FEFEFE"/>
<path d="M135.6 41V33.65H138.89C140.3 33.65 141.44 34.79 141.44 36.2C141.44 37.6 140.3 38.75 138.89 38.75H136.6V41H135.6ZM138.89 34.6H136.6V37.8H138.89C139.71 37.8 140.44 37.03 140.44 36.2C140.44 35.36 139.72 34.6 138.89 34.6Z" fill="#FEFEFE"/>
<path d="M142.541 41V35.4H143.541V37.42H145.571C146.561 37.42 147.371 38.21 147.371 39.2C147.371 40.2 146.561 41 145.571 41H142.541ZM148.041 41V35.4H149.041V41H148.041ZM143.541 40.03H145.571C146.031 40.03 146.401 39.66 146.401 39.2C146.401 38.74 146.031 38.39 145.571 38.39H143.541V40.03Z" fill="#FEFEFE"/>
<path d="M153.241 35.67C154.641 35.67 155.741 36.64 155.741 38.34C155.741 39.91 154.391 41.03 152.841 41.03C151.281 41.03 149.931 39.86 149.931 38.19C149.931 36.49 150.141 34.66 152.441 34.08C153.211 33.89 153.761 33.78 154.021 33.6L154.161 33.17H154.891V34.32C154.401 34.63 153.761 34.71 152.731 34.98C151.641 35.26 151.211 35.84 151.041 36.58C151.601 36.07 152.351 35.67 153.241 35.67ZM150.931 37.61V38.18C150.931 39.2 151.841 40.03 152.841 40.03C153.861 40.03 154.741 39.36 154.741 38.34C154.741 37.19 153.811 36.67 153.041 36.67C152.211 36.67 151.451 37.01 150.931 37.61Z" fill="#FEFEFE"/>
<path d="M159.333 35.37C160.883 35.37 162.233 36.64 162.233 38.19C162.233 39.76 160.883 41.03 159.333 41.03C157.773 41.03 156.423 39.76 156.423 38.19C156.423 36.64 157.773 35.37 159.333 35.37ZM159.333 36.37C158.313 36.37 157.423 37.19 157.423 38.19C157.423 39.21 158.313 40.03 159.333 40.03C160.353 40.03 161.233 39.21 161.233 38.19C161.233 37.19 160.353 36.37 159.333 36.37Z" fill="#FEFEFE"/>
<path d="M163.91 36.33V35.4H168.43V41H167.43V36.33H165.5L164.71 40.13C164.59 40.72 163.95 41.03 163.41 41.03L162.92 40.93V40.03H163.41C163.57 40.03 163.78 39.89 163.83 39.64L164.51 36.33H163.91Z" fill="#FEFEFE"/>
<path d="M172.126 35.37C173.676 35.37 175.026 36.64 175.026 38.19C175.026 39.76 173.676 41.03 172.126 41.03C170.566 41.03 169.216 39.76 169.216 38.19C169.216 36.64 170.566 35.37 172.126 35.37ZM172.126 36.37C171.106 36.37 170.216 37.19 170.216 38.19C170.216 39.21 171.106 40.03 172.126 40.03C173.146 40.03 174.026 39.21 174.026 38.19C174.026 37.19 173.146 36.37 172.126 36.37Z" fill="#FEFEFE"/>
<path d="M180.842 39.3C180.842 40.24 180.083 41 179.143 41H175.812V35.4H178.943C179.833 35.4 180.553 36.11 180.553 36.99C180.553 37.31 180.363 37.79 180.012 37.97C180.432 38.15 180.842 38.74 180.842 39.3ZM179.143 38.58H176.812V40.03H179.143C179.533 40.03 179.842 39.68 179.842 39.3C179.842 38.91 179.533 38.58 179.143 38.58ZM178.943 36.37H176.812V37.61H179.062C179.303 37.59 179.553 37.33 179.553 36.99C179.553 36.66 179.273 36.37 178.943 36.37Z" fill="#FEFEFE"/>
<path d="M182.838 41H181.838V35.4H182.838V37.62H185.918V35.4H186.918V41H185.918V38.55H182.838V41Z" fill="#FEFEFE"/>
<path d="M190.622 35.37C192.172 35.37 193.522 36.64 193.522 38.19C193.522 39.76 192.172 41.03 190.622 41.03C189.062 41.03 187.712 39.76 187.712 38.19C187.712 36.64 189.062 35.37 190.622 35.37ZM190.622 36.37C189.602 36.37 188.712 37.19 188.712 38.19C188.712 39.21 189.602 40.03 190.622 40.03C191.642 40.03 192.522 39.21 192.522 38.19C192.522 37.19 191.642 36.37 190.622 36.37Z" fill="#FEFEFE"/>
<path d="M194.409 37.2H197.739V38H194.409V37.2Z" fill="#FEFEFE"/>
<path d="M138.2 45.37C139.75 45.37 141.1 46.64 141.1 48.19C141.1 49.76 139.75 51.03 138.2 51.03C136.64 51.03 135.29 49.76 135.29 48.19C135.29 46.64 136.64 45.37 138.2 45.37ZM138.2 46.37C137.18 46.37 136.29 47.19 136.29 48.19C136.29 49.21 137.18 50.03 138.2 50.03C139.22 50.03 140.1 49.21 140.1 48.19C140.1 47.19 139.22 46.37 138.2 46.37Z" fill="#FEFEFE"/>
<path d="M143.297 48.06L141.747 45.4H142.797L144.107 47.62H144.257L145.567 45.4H146.617L145.067 48.06L146.737 51H145.687L144.287 48.55H144.087L142.667 51H141.617L143.297 48.06Z" fill="#FEFEFE"/>
<path d="M150.544 45.37C152.094 45.37 153.444 46.64 153.444 48.19C153.444 49.76 152.094 51.03 150.544 51.03C148.984 51.03 147.634 49.76 147.634 48.19C147.634 46.64 148.984 45.37 150.544 45.37ZM150.544 46.37C149.524 46.37 148.634 47.19 148.634 48.19C148.634 49.21 149.524 50.03 150.544 50.03C151.564 50.03 152.444 49.21 152.444 48.19C152.444 47.19 151.564 46.37 150.544 46.37Z" fill="#FEFEFE"/>
<path d="M157.23 51H156.23V46.33H154.23V45.4H159.23V46.33H157.23V51Z" fill="#FEFEFE"/>
<path d="M161.227 51H160.227V45.4H161.227V47.62H164.307V45.4H165.307V51H164.307V48.55H161.227V51Z" fill="#FEFEFE"/>
<path d="M171.391 51H170.391V46.33H170.101L168.061 51H166.311V45.4H167.311V50.07H167.511L169.571 45.4H171.391V51Z" fill="#FEFEFE"/>
<path d="M177.375 51H176.375V49.05H174.195C173.185 49.05 172.395 48.23 172.395 47.25V45.4H173.395V47.25C173.395 47.7 173.745 48.08 174.195 48.08H176.375V45.4H177.375V51Z" fill="#FEFEFE"/>
<path d="M178.371 51V45.4H179.371V47.42H181.701C182.691 47.42 183.501 48.21 183.501 49.2C183.501 50.2 182.691 51 181.701 51H178.371ZM179.371 50.03H181.701C182.161 50.03 182.531 49.66 182.531 49.2C182.531 48.74 182.161 48.39 181.701 48.39H179.371V50.03Z" fill="#FEFEFE"/>
<path d="M185.114 51.03L184.624 50.93V50.03H185.114C185.234 50.03 185.334 49.98 185.404 49.82L185.824 48.91C185.064 48.71 184.504 48.01 184.504 47.18C184.504 46.21 185.304 45.4 186.274 45.4H189.434V51H188.434V48.97H186.914L186.264 50.34C186.064 50.76 185.624 51.03 185.114 51.03ZM185.504 47.18C185.504 47.62 185.854 47.97 186.274 47.97H188.434V46.4H186.294C185.864 46.4 185.504 46.75 185.504 47.18Z" fill="#FEFEFE"/>
<path d="M196.63 45.67C198.03 45.67 199.13 46.64 199.13 48.34C199.13 49.91 197.78 51.03 196.23 51.03C194.67 51.03 193.32 49.86 193.32 48.19C193.32 46.49 193.53 44.66 195.83 44.08C196.6 43.89 197.15 43.78 197.41 43.6L197.55 43.17H198.28V44.32C197.79 44.63 197.15 44.71 196.12 44.98C195.03 45.26 194.6 45.84 194.43 46.58C194.99 46.07 195.74 45.67 196.63 45.67ZM194.32 47.61V48.18C194.32 49.2 195.23 50.03 196.23 50.03C197.25 50.03 198.13 49.36 198.13 48.34C198.13 47.19 197.2 46.67 196.43 46.67C195.6 46.67 194.84 47.01 194.32 47.61Z" fill="#FEFEFE"/>
<path d="M200.021 49.22C200.021 48.22 200.731 47.41 201.921 47.41C202.911 47.41 203.551 47.54 204.101 47.81V47.46C204.101 46.7 203.451 46.3 202.721 46.3C202.111 46.3 201.771 46.36 201.371 46.57L201.311 46.97H200.511V45.99C201.191 45.6 201.741 45.37 202.721 45.37C204.101 45.37 205.101 46.09 205.101 47.65V51H204.301L204.141 50.17C203.591 50.61 202.931 51.03 201.921 51.03C200.731 51.03 200.021 50.22 200.021 49.22ZM200.991 49.22C200.991 49.68 201.361 50.14 202.121 50.14C202.911 50.14 203.561 49.71 204.101 49.19V48.7C203.571 48.44 202.811 48.3 202.021 48.3C201.261 48.3 200.991 48.76 200.991 49.22Z" fill="#FEFEFE"/>
<path d="M207.825 48.59V47.63H208.705C209.945 47.63 210.045 47.29 210.045 47.01C210.045 46.65 209.495 46.32 208.605 46.32C208.005 46.32 207.525 46.5 207.235 46.64L207.205 46.94H206.375V45.96C206.405 45.93 207.335 45.37 208.605 45.37C210.015 45.37 211.045 46.11 211.045 47.01C211.045 47.49 210.705 47.94 210.425 48.07C210.805 48.24 211.255 48.71 211.255 49.27C211.255 50.33 210.145 51.03 208.655 51.03C207.135 51.03 206.055 50.19 206.005 50.15L206.635 49.38C206.675 49.41 207.395 50.05 208.655 50.05C209.345 50.05 210.255 49.85 210.255 49.27C210.255 48.88 210.035 48.59 208.655 48.59H207.825Z" fill="#FEFEFE"/>
<path d="M212.16 49.22C212.16 48.22 212.87 47.41 214.06 47.41C215.05 47.41 215.69 47.54 216.24 47.81V47.46C216.24 46.7 215.59 46.3 214.86 46.3C214.25 46.3 213.91 46.36 213.51 46.57L213.45 46.97H212.65V45.99C213.33 45.6 213.88 45.37 214.86 45.37C216.24 45.37 217.24 46.09 217.24 47.65V51H216.44L216.28 50.17C215.73 50.61 215.07 51.03 214.06 51.03C212.87 51.03 212.16 50.22 212.16 49.22ZM213.13 49.22C213.13 49.68 213.5 50.14 214.26 50.14C215.05 50.14 215.7 49.71 216.24 49.19V48.7C215.71 48.44 214.95 48.3 214.16 48.3C213.4 48.3 213.13 48.76 213.13 49.22Z" fill="#FEFEFE"/>
</svg>
