<svg width="0" height="0">
	<symbol xmlns="http://www.w3.org/2000/svg" id="arrow1" viewBox="0 0 8 14">
		<path d="M1 1L7 7L1 13" stroke-width="2" stroke-linecap="round" stroke-linejoin="round" fill="none"/>
	</symbol>

	<symbol xmlns="http://www.w3.org/2000/svg" id="burger" viewBox="0 0 22 14">
		<path d="M0 1C0 0.447715 0.410406 0 0.916667 0L21.0833 0C21.5896 0 22 0.447715 22 1C22 1.55228 21.5896 2 21.0833 2L0.916667 2C0.410406 2 0 1.55228 0 1Z"/>
		<path d="M0 7C0 6.44772 0.410406 6 0.916667 6L21.0833 6C21.5896 6 22 6.44772 22 7C22 7.55228 21.5896 8 21.0833 8L0.916667 8C0.410406 8 0 7.55228 0 7Z"/>
		<path d="M5.5 13C5.5 12.4477 5.91041 12 6.41667 12L21.0833 12C21.5896 12 22 12.4477 22 13C22 13.5523 21.5896 14 21.0833 14L6.41667 14C5.91041 14 5.5 13.5523 5.5 13Z"/>
	</symbol>

	<symbol xmlns="http://www.w3.org/2000/svg" id="telegram" viewBox="0 0 24 24">
		<path fill-rule="evenodd" clip-rule="evenodd" d="M2.50631 11.1945C8.41071 8.5216 12.3413 6.7456 14.315 5.8839C19.9326 3.4396 21.1135 3.0176 21.8726 3C22.0413 3 22.4125 3.0352 22.6655 3.2462C22.8679 3.422 22.9185 3.6506 22.9523 3.8265C22.986 4.0023 23.0198 4.3716 22.986 4.653C22.6824 7.9941 21.3665 16.1007 20.6918 19.8287C20.405 21.4113 19.8483 21.9389 19.3084 21.9916C18.1276 22.0972 17.2335 21.1827 16.1032 20.409C14.315 19.1957 13.3197 18.4395 11.5822 17.2437C9.57471 15.8721 10.8736 15.116 12.0208 13.885C12.3244 13.5685 17.5034 8.6447 17.6046 8.2051C17.6215 8.1524 17.6215 7.9413 17.5034 7.8358C17.3853 7.7303 17.2166 7.7655 17.0817 7.8007C16.8961 7.8358 14.062 9.8053 8.54561 13.6916C7.73591 14.2719 7.01051 14.5533 6.35261 14.5357C5.62721 14.5181 4.24391 14.1136 3.19801 13.7619C1.93271 13.3399 0.92061 13.1113 1.00491 12.3727C1.05551 11.9859 1.56161 11.599 2.50631 11.1945Z"/>
	</symbol>

	<symbol xmlns="http://www.w3.org/2000/svg" id="whatsapp" viewBox="0 0 24 24">
		<path fill-rule="evenodd" clip-rule="evenodd" d="M3.41292 16.8646L2 22L7.27892 20.6219C8.7335 21.4115 10.371 21.8277 12.0375 21.8283H12.0418C17.5301 21.8283 21.9976 17.382 22 11.9179C22.001 9.26983 20.9664 6.77983 19.0861 4.90658C17.2058 3.03333 14.7056 2.00133 12.0419 2C6.55283 2 2.086 6.44558 2.08367 11.91C2.08158 13.6492 2.54008 15.3581 3.41292 16.8646ZM8.99283 7.33908C9.17 7.34617 9.36625 7.35458 9.55275 7.767C9.67975 8.04842 9.89333 8.57242 10.0639 8.99092C10.1903 9.301 10.2931 9.55317 10.3196 9.60592C10.3818 9.72975 10.4232 9.87467 10.3403 10.0397C10.3276 10.0651 10.3158 10.089 10.3046 10.1118C10.2429 10.2376 10.1973 10.3303 10.0918 10.4527C10.0497 10.5016 10.0061 10.5543 9.96258 10.607C9.87733 10.7102 9.79233 10.8131 9.71842 10.8866C9.59367 11.01 9.46367 11.1442 9.60908 11.392C9.75442 11.6397 10.2537 12.4506 10.9933 13.1072C11.7894 13.8139 12.4807 14.1122 12.8307 14.2633C12.8987 14.2927 12.9538 14.3164 12.9943 14.3366C13.2433 14.4604 13.3882 14.4397 13.5334 14.2743C13.6787 14.109 14.1549 13.5513 14.321 13.3034C14.4871 13.0555 14.6528 13.0966 14.8809 13.1792C15.109 13.262 16.3321 13.8612 16.5811 13.9852C16.6301 14.0095 16.6758 14.0315 16.7182 14.0518C16.8914 14.135 17.0083 14.1911 17.0582 14.2743C17.1203 14.3779 17.1202 14.8735 16.913 15.4519C16.7057 16.0303 15.69 16.5883 15.2337 16.6295C15.1897 16.6335 15.146 16.6386 15.1011 16.6438C14.6794 16.6932 14.1473 16.7554 12.2478 16.0098C9.90833 15.0913 8.36642 12.8143 8.04992 12.347C8.02433 12.3092 8.00675 12.2832 7.99742 12.2707L7.99442 12.2668C7.85975 12.0875 6.9815 10.9184 6.9815 9.709C6.9815 8.56883 7.54433 7.97092 7.8035 7.6955C7.82133 7.67658 7.83775 7.65917 7.85242 7.64317C8.08033 7.39525 8.35 7.33325 8.51592 7.33325L8.99283 7.33908Z"/>
	</symbol>

	<symbol xmlns="http://www.w3.org/2000/svg" id="vk" viewBox="0 0 24 24">
		<path d="M12.9825 20C5.46591 20 1.17866 14.3694 1 5H4.76512C4.88878 11.8768 7.66453 14.7897 9.86316 15.3904V5H13.4086V10.9309C15.5797 10.6757 17.8605 7.973 18.6301 5H22.1754C21.5845 8.66366 19.111 11.3664 17.3521 12.4775C19.111 13.3783 21.9281 15.7358 23 20H19.0973C18.2591 17.1472 16.1706 14.9399 13.4086 14.6397V20H12.9825Z"/>
	</symbol>

	<symbol xmlns="http://www.w3.org/2000/svg" id="soc" viewBox="0 0 24 24">
		<path d="M8.45074 13.2624C8.45074 14.4826 7.57723 15.4718 6.5 15.4718C5.42277 15.4718 4.54926 14.4826 4.54926 13.2624C4.54926 12.0425 5.42277 11.0531 6.5 11.0531C7.57723 11.0531 8.45074 12.0425 8.45074 13.2624ZM17.4951 11.0531C16.4179 11.0531 15.5444 12.0425 15.5444 13.2624C15.5444 14.4826 16.4179 15.4718 17.4951 15.4718C18.5724 15.4718 19.4459 14.4826 19.4459 13.2624C19.4455 12.0431 18.5729 11.0544 17.4961 11.0539L17.4951 11.0531ZM22.9951 13.2624C22.9951 16.7006 20.5318 19.4881 17.4951 19.4881C16.11 19.4909 14.7754 18.8988 13.7604 17.8312L12 20L10.2389 17.8288C9.22398 18.8975 7.88888 19.4904 6.50301 19.488C3.46851 19.488 1.00603 16.7006 1.00603 13.2622C1.00495 12.3961 1.16391 11.5393 1.47268 10.747C1.78145 9.95456 2.2332 9.2441 2.7989 8.66122L1 6.44469H4.9969C9.22598 3.1851 14.7844 3.1851 19.0135 6.44469H23L21.2013 8.66122C21.7672 9.24402 22.2191 9.95447 22.5281 10.7469C22.837 11.5393 22.9961 12.3962 22.9951 13.2624ZM10.2215 13.2624C10.2215 10.9358 8.55587 9.04909 6.50134 9.04909C4.44681 9.04909 2.78116 10.9358 2.78116 13.2624C2.78116 15.5891 4.44681 17.4758 6.50134 17.4758C8.55587 17.4758 10.2214 15.5899 10.2215 13.2632V13.2624ZM16.128 6.97228C14.8197 6.35505 13.4166 6.03727 11.9993 6.03727C10.5821 6.03727 9.17891 6.35505 7.87069 6.97228C10.2193 7.99031 12 10.3684 12 13.1411C12 10.3685 13.7802 7.99031 16.128 6.97228ZM21.2163 13.2622C21.2163 10.9354 19.5507 9.0489 17.4961 9.0489C15.4416 9.0489 13.776 10.9352 13.776 13.2622C13.776 15.5889 15.4416 17.4756 17.4961 17.4756C19.5507 17.4756 21.2163 15.5889 21.2163 13.2622Z"/>
	</symbol>

	<symbol xmlns="http://www.w3.org/2000/svg" id="arrow2" viewBox="0 0 16 16">
		<path d="M12 6L8 10L4 6" stroke-width="1.2" stroke-linecap="round" stroke-linejoin="round"/>
	</symbol>
</svg>